<svg version="1.1" xmlns="http://www.w3.org/2000/svg" width="128" height="128"  viewBox="0 0 2865 2443">
<path d="M0 0 C945.45 0 1890.9 0 2865 0 C2865 806.19 2865 1612.38 2865 2443 C1919.55 2443 974.1 2443 0 2443 C0 1636.81 0 830.62 0 0 Z " fill="#FEFEFE" transform="translate(0,0)"/>
<path d="M0 0 C322.41 0 644.82 0 977 0 C977 647.46 977 1294.92 977 1962 C654.59 1962 332.18 1962 0 1962 C0 1314.54 0 667.08 0 0 Z " fill="#000000" transform="translate(942,255)"/>
    <defs>
        <linearGradient id="verticalGradient" x1="0" y1="0" x2="0" y2="1">
            <stop offset="0%" stop-color="#337592" />
            <stop offset="50%" stop-color="#BDD2DC" />
            <stop offset="100%" stop-color="#337592" />
        </linearGradient>
    </defs>
  <path d="M0 0 C366.3 0 732.6 0 1110 0 C1110 0.99 1110 1.98 1110 3 C1113.96 3 1117.92 3 1122 3 C1122 3.99 1122 4.98 1122 6 C1123.32 6 1124.64 6 1126 6 C1126 6.99 1126 7.98 1126 9 C1128.31 9 1130.62 9 1133 9 C1133 9.99 1133 10.98 1133 12 C1134.32 12 1135.64 12 1137 12 C1137.33 13.98 1137.66 15.96 1138 18 C1139.32 18 1140.64 18 1142 18 C1142 19.32 1142 20.64 1142 22 C1142.99 22 1143.98 22 1145 22 C1145 24.64 1145 27.28 1145 30 C1146.32 30 1147.64 30 1149 30 C1149 710.13 1149 1390.26 1149 2091 C1147.68 2091 1146.36 2091 1145 2091 C1145 2093.97 1145 2096.94 1145 2100 C1144.01 2100 1143.02 2100 1142 2100 C1142 2101.98 1142 2103.96 1142 2106 C1140.68 2106 1139.36 2106 1138 2106 C1138 2106.99 1138 2107.98 1138 2109 C1136.68 2109 1135.36 2109 1134 2109 C1134 2109.99 1134 2110.98 1134 2112 C1132.68 2112 1131.36 2112 1130 2112 C1130 2112.99 1130 2113.98 1130 2115 C1128.68 2115 1127.36 2115 1126 2115 C1125.67 2115.99 1125.34 2116.98 1125 2118 C1124.01 2118 1123.02 2118 1122 2118 C1122 2118.99 1122 2119.98 1122 2121 C1118.04 2121 1114.08 2121 1110 2121 C1110 2121.99 1110 2122.98 1110 2124 C743.37 2124 376.74 2124 -1 2124 C-1 2123.01 -1 2122.02 -1 2121 C-3.31 2121 -5.62 2121 -8 2121 C-8 2120.01 -8 2119.02 -8 2118 C-10.64 2117.67 -13.28 2117.34 -16 2117 C-16 2116.34 -16 2115.68 -16 2115 C-17.32 2115 -18.64 2115 -20 2115 C-20 2114.01 -20 2113.02 -20 2112 C-21.32 2112 -22.64 2112 -24 2112 C-24 2111.01 -24 2110.02 -24 2109 C-25.32 2109 -26.64 2109 -28 2109 C-28 2108.01 -28 2107.02 -28 2106 C-29.32 2106 -30.64 2106 -32 2106 C-32 2104.68 -32 2103.36 -32 2102 C-32.99 2102 -33.98 2102 -35 2102 C-36.4783226 2099.04335481 -36.06032783 2096.25770263 -36 2093 C-36.99 2093 -37.98 2093 -39 2093 C-39 1412.21 -39 731.42 -39 30 C-37.68 30 -36.36 30 -35 30 C-35 28.02 -35 26.04 -35 24 C-33.68 24 -32.36 24 -31 24 C-31 22.35 -31 20.7 -31 19 C-30.01 19 -29.02 19 -28 19 C-27.67 16.69 -27.34 14.38 -27 12 C-26.01 12 -25.02 12 -24 12 C-24 11.34 -24 10.68 -24 10 C-21.36 9.67 -18.72 9.34 -16 9 C-16 8.01 -16 7.02 -16 6 C-14.68 6 -13.36 6 -12 6 C-12 5.01 -12 4.02 -12 3 C-8.37 3 -4.74 3 -1 3 C-0.67 2.01 -0.34 1.02 0 0 Z M66 81 C66 728.46 66 1375.92 66 2043 C388.41 2043 710.82 2043 1043 2043 C1043 1395.54 1043 748.08 1043 81 C720.59 81 398.18 81 66 81 Z " fill="url(#verticalGradient)" transform="translate(876,174)"/>
<path d="M0 0 C945.45 0 1890.9 0 2865 0 C2865 806.19 2865 1612.38 2865 2443 C1919.55 2443 974.1 2443 0 2443 C0 1636.81 0 830.62 0 0 Z M62 49 C62 823.18 62 1597.36 62 2395 C967.85 2395 1873.7 2395 2807 2395 C2807 1620.82 2807 846.64 2807 49 C1901.15 49 995.3 49 62 49 Z " fill="#052534" transform="translate(0,0)"/>
<path d="M0 0 C29.7 0 59.4 0 90 0 C90 0.33 90 0.66 90 1 C101.22 1.66 112.44 2.32 124 3 C124.33 3.66 124.66 4.32 125 5 C135.23 5.33 145.46 5.66 156 6 C156 6.99 156 7.98 156 9 C158.31 9 160.62 9 163 9 C163 9.99 163 10.98 163 12 C166.96 12 170.92 12 175 12 C175 12.99 175 13.98 175 15 C176.32 15 177.64 15 179 15 C179 15.99 179 16.98 179 18 C181.64 18 184.28 18 187 18 C187 18.99 187 19.98 187 21 C188.32 21 189.64 21 191 21 C191 21.99 191 22.98 191 24 C192.32 24 193.64 24 195 24 C195 24.99 195 25.98 195 27 C196.32 27 197.64 27 199 27 C199 28.98 199 30.96 199 33 C200.32 33 201.64 33 203 33 C203 266.64 203 500.28 203 741 C203.99 741 204.98 741 206 741 C206.33 745.95 206.66 750.9 207 756 C207.99 756 208.98 756 210 756 C210 757.98 210 759.96 210 762 C211.32 762 212.64 762 214 762 C214.33 763.98 214.66 765.96 215 768 C215.99 768 216.98 768 218 768 C218 768.99 218 769.98 218 771 C219.32 771 220.64 771 222 771 C222.33 772.98 222.66 774.96 223 777 C223.99 777 224.98 777 226 777 C226 777.99 226 778.98 226 780 C228.64 780 231.28 780 234 780 C234 780.99 234 781.98 234 783 C235.32 783 236.64 783 238 783 C238 783.99 238 784.98 238 786 C239.32 786 240.64 786 242 786 C242 786.99 242 787.98 242 789 C244.64 789 247.28 789 250 789 C250 789.99 250 790.98 250 792 C251.98567708 791.96744792 253.97135417 791.93489583 255.95703125 791.90234375 C258 792 258 792 261 793 C261 793.66 261 794.32 261 795 C264.96 795 268.92 795 273 795 C273 795.99 273 796.98 273 798 C309.3 798 345.6 798 383 798 C383 798.99 383 799.98 383 801 C384.32 801 385.64 801 387 801 C387 801.99 387 802.98 387 804 C388.32 804 389.64 804 391 804 C391 805.65 391 807.3 391 809 C391.99 809 392.98 809 394 809 C394 814.28 394 819.56 394 825 C393.01 825 392.02 825 391 825 C391 828.96 391 832.92 391 837 C389.68 837 388.36 837 387 837 C387 838.98 387 840.96 387 843 C385.68 843 384.36 843 383 843 C383 844.98 383 846.96 383 849 C381.68 849 380.36 849 379 849 C379 850.98 379 852.96 379 855 C377.68 855 376.36 855 375 855 C375 855.99 375 856.98 375 858 C373.68 858 372.36 858 371 858 C371 859.98 371 861.96 371 864 C369.68 864 368.36 864 367 864 C367 865.98 367 867.96 367 870 C365.68 870 364.36 870 363 870 C363 870.99 363 871.98 363 873 C361.68 873 360.36 873 359 873 C359 874.65 359 876.3 359 878 C358.01 878 357.02 878 356 878 C356 879.98 356 881.96 356 884 C354.68 884 353.36 884 352 884 C352 884.99 352 885.98 352 887 C350.68 887 349.36 887 348 887 C348 887.99 348 888.98 348 890 C346.68 890 345.36 890 344 890 C343.67 891.98 343.34 893.96 343 896 C342.01 896 341.02 896 340 896 C340 896.99 340 897.98 340 899 C338.68 899 337.36 899 336 899 C336 899.99 336 900.98 336 902 C334.68 902 333.36 902 332 902 C332 902.99 332 903.98 332 905 C330.68 905 329.36 905 328 905 C328 905.99 328 906.98 328 908 C326.68 908 325.36 908 324 908 C324 908.99 324 909.98 324 911 C322.68 911 321.36 911 320 911 C320 911.99 320 912.98 320 914 C318.68 914 317.36 914 316 914 C316 914.99 316 915.98 316 917 C315.01 917 314.02 917 313 917 C312.67 918.98 312.34 920.96 312 923 C310.68 923 309.36 923 308 923 C308 923.99 308 924.98 308 926 C306.68 926 305.36 926 304 926 C304 926.99 304 927.98 304 929 C302.68 929 301.36 929 300 929 C300 929.99 300 930.98 300 932 C297.36 932 294.72 932 292 932 C292 932.99 292 933.98 292 935 C291.01 935 290.02 935 289 935 C289 935.99 289 936.98 289 938 C287.68 938 286.36 938 285 938 C285 938.99 285 939.98 285 941 C283.68 941 282.36 941 281 941 C281 941.99 281 942.98 281 944 C279.68 944 278.36 944 277 944 C277 944.66 277 945.32 277 946 C275.68 946 274.36 946 273 946 C273 947.32 273 948.64 273 950 C271.68 950 270.36 950 269 950 C269 950.66 269 951.32 269 952 C266.69 952.33 264.38 952.66 262 953 C262 953.99 262 954.98 262 956 C260.35 956 258.7 956 257 956 C257 956.66 257 957.32 257 958 C256.01 958 255.02 958 254 958 C254 959.32 254 960.64 254 962 C251.36 962 248.72 962 246 962 C246 962.66 246 963.32 246 964 C243.36 964.33 240.72 964.66 238 965 C238 965.66 238 966.32 238 967 C236.68 967 235.36 967 234 967 C234 967.99 234 968.98 234 970 C231.36 970.33 228.72 970.66 226 971 C226 971.66 226 972.32 226 973 C224.2984375 973.185625 224.2984375 973.185625 222.5625 973.375 C221.386875 973.58125 220.21125 973.7875 219 974 C218.67 974.66 218.34 975.32 218 976 C217.01 976.33 216.02 976.66 215 977 C214.67 977.66 214.34 978.32 214 979 C211.24921116 979.91692961 209.64051087 980.10886083 206.8125 980.0625 C205.554375 980.041875 204.29625 980.02125 203 980 C203 980.66 203 981.32 203 982 C199.53777385 983.06723961 196.35960734 983.10173486 192.75 983.0625 C191.67234375 983.05347656 190.5946875 983.04445313 189.484375 983.03515625 C188.25460937 983.01775391 188.25460937 983.01775391 187 983 C187 983.66 187 984.32 187 985 C183.06723848 986.29131933 179.10740191 986.13306411 175.01855469 986.11352539 C174.2181778 986.11367142 173.4178009 986.11381744 172.59317017 986.1139679 C169.95271069 986.1132723 167.31232212 986.1054964 164.671875 986.09765625 C162.83913207 986.09579082 161.00638863 986.09436751 159.17364502 986.09336853 C154.35350158 986.08955322 149.53338835 986.07973133 144.71325684 986.06866455 C139.79321705 986.05842925 134.87317237 986.05386637 129.953125 986.04882812 C120.30207007 986.03810819 110.65103755 986.02104359 101 986 C101 985.01 101 984.02 101 983 C94.73 983 88.46 983 82 983 C82 982.01 82 981.02 82 980 C80.77023437 980.01740234 80.77023437 980.01740234 79.515625 980.03515625 C77.89914062 980.04869141 77.89914062 980.04869141 76.25 980.0625 C74.64898438 980.07990234 74.64898438 980.07990234 73.015625 980.09765625 C70.46631499 980.01510087 68.42066409 979.74617558 66 979 C66 978.34 66 977.68 66 977 C62.04 976.67 58.08 976.34 54 976 C54 975.34 54 974.68 54 974 C50.37 974 46.74 974 43 974 C42.67 973.01 42.34 972.02 42 971 C39.69 970.67 37.38 970.34 35 970 C35 969.34 35 968.68 35 968 C32.36 967.67 29.72 967.34 27 967 C27 966.34 27 965.68 27 965 C23.04 965 19.08 965 15 965 C15 963.68 15 962.36 15 961 C13.68 961 12.36 961 11 961 C11 960.34 11 959.68 11 959 C8.69 958.67 6.38 958.34 4 958 C4 957.01 4 956.02 4 955 C2.35 955 0.7 955 -1 955 C-1 954.34 -1 953.68 -1 953 C-3.64 952.67 -6.28 952.34 -9 952 C-9 951.34 -9 950.68 -9 950 C-10.32 949.67 -11.64 949.34 -13 949 C-13 948.34 -13 947.68 -13 947 C-15.31 946.67 -17.62 946.34 -20 946 C-20 945.01 -20 944.02 -20 943 C-21.32 943 -22.64 943 -24 943 C-24 942.34 -24 941.68 -24 941 C-25.32 941 -26.64 941 -28 941 C-28 940.01 -28 939.02 -28 938 C-30.31 938 -32.62 938 -35 938 C-35 937.01 -35 936.02 -35 935 C-36.32 935 -37.64 935 -39 935 C-39 934.01 -39 933.02 -39 932 C-40.32 932 -41.64 932 -43 932 C-43 931.01 -43 930.02 -43 929 C-44.32 929 -45.64 929 -47 929 C-47 928.01 -47 927.02 -47 926 C-48.32 926 -49.64 926 -51 926 C-51.495 923.03 -51.495 923.03 -52 920 C-53.32 920 -54.64 920 -56 920 C-56 919.01 -56 918.02 -56 917 C-56.99 917 -57.98 917 -59 917 C-59 916.01 -59 915.02 -59 914 C-60.32 914 -61.64 914 -63 914 C-63 913.01 -63 912.02 -63 911 C-64.32 911 -65.64 911 -67 911 C-67 909.02 -67 907.04 -67 905 C-68.32 905 -69.64 905 -71 905 C-71 904.01 -71 903.02 -71 902 C-72.32 902 -73.64 902 -75 902 C-75 900.02 -75 898.04 -75 896 C-76.32 896 -77.64 896 -79 896 C-79 895.01 -79 894.02 -79 893 C-79.99 893 -80.98 893 -82 893 C-82.495 890.03 -82.495 890.03 -83 887 C-83.99 887 -84.98 887 -86 887 C-86.495 884.03 -86.495 884.03 -87 881 C-87.99 881 -88.98 881 -90 881 C-90.33 879.02 -90.66 877.04 -91 875 C-91.99 875 -92.98 875 -94 875 C-94 873.35 -94 871.7 -94 870 C-95.65 870 -97.3 870 -99 870 C-99 867.03 -99 864.06 -99 861 C-99.99 861 -100.98 861 -102 861 C-102 859.02 -102 857.04 -102 855 C-103.32 855 -104.64 855 -106 855 C-106 850.05 -106 845.1 -106 840 C-107.32 840 -108.64 840 -110 840 C-110 838.02 -110 836.04 -110 834 C-111.32 834 -112.64 834 -114 834 C-114 828.06 -114 822.12 -114 816 C-115.32 816 -116.64 816 -118 816 C-118 802.14 -118 788.28 -118 774 C-118.66 774 -119.32 774 -120 774 C-120.33 774.99 -120.66 775.98 -121 777 C-121 531.48 -121 285.96 -121 33 C-120.01 33 -119.02 33 -118 33 C-118 31.02 -118 29.04 -118 27 C-116.68 27 -115.36 27 -114 27 C-114 26.01 -114 25.02 -114 24 C-112.68 24 -111.36 24 -110 24 C-110 23.01 -110 22.02 -110 21 C-108.68 21 -107.36 21 -106 21 C-106 20.01 -106 19.02 -106 18 C-103.36 18 -100.72 18 -98 18 C-98 17.01 -98 16.02 -98 15 C-96.68 15 -95.36 15 -94 15 C-94 14.01 -94 13.02 -94 12 C-91.36 12 -88.72 12 -86 12 C-86 11.01 -86 10.02 -86 9 C-82.37 9 -78.74 9 -75 9 C-75 8.01 -75 7.02 -75 6 C-67.08 5.67 -59.16 5.34 -51 5 C-51 4.34 -51 3.68 -51 3 C-25.755 2.505 -25.755 2.505 0 2 C0 1.34 0 0.68 0 0 Z " fill="#FE0000" transform="translate(1361,1160)"/>
<path d="M0 0 C28.05 0 56.1 0 85 0 C85.33 0.66 85.66 1.32 86 2 C93.59 2.33 101.18 2.66 109 3 C109 3.66 109 4.32 109 5 C110.98567708 4.96744792 112.97135417 4.93489583 114.95703125 4.90234375 C117 5 117 5 120 6 C120 6.99 120 7.98 120 9 C122.64 9 125.28 9 128 9 C128 9.99 128 10.98 128 12 C130.64 12 133.28 12 136 12 C136 12.99 136 13.98 136 15 C138.64 15 141.28 15 144 15 C144 15.99 144 16.98 144 18 C146.64 18 149.28 18 152 18 C152 18.99 152 19.98 152 21 C153.32 21 154.64 21 156 21 C156 21.99 156 22.98 156 24 C158.31 24 160.62 24 163 24 C163 24.99 163 25.98 163 27 C164.32 27 165.64 27 167 27 C167 27.99 167 28.98 167 30 C168.32 30 169.64 30 171 30 C171 30.99 171 31.98 171 33 C172.32 33 173.64 33 175 33 C175 33.99 175 34.98 175 36 C176.32 36 177.64 36 179 36 C179 36.99 179 37.98 179 39 C180.32 39 181.64 39 183 39 C183 40.98 183 42.96 183 45 C184.32 45 185.64 45 187 45 C187 45.99 187 46.98 187 48 C188.32 48 189.64 48 191 48 C191 49.98 191 51.96 191 54 C192.32 54 193.64 54 195 54 C195 55.65 195 57.3 195 59 C196.32 59 197.64 59 199 59 C199 60.98 199 62.96 199 65 C200.32 65 201.64 65 203 65 C203 66.98 203 68.96 203 71 C204.32 71 205.64 71 207 71 C207 73.97 207 76.94 207 80 C208.32 80 209.64 80 211 80 C211 85.94 211 91.88 211 98 C211.99 98 212.98 98 214 98 C215.06309567 103.17317421 215.11693938 108.12369336 215.0625 113.375 C215.05798828 114.20644531 215.05347656 115.03789063 215.04882812 115.89453125 C215.03713164 117.92971897 215.01919935 119.96486923 215 122 C215.99 122 216.98 122 218 122 C218 135.86 218 149.72 218 164 C217.01 164 216.02 164 215 164 C215.01160156 165.22976563 215.02320313 166.45953125 215.03515625 167.7265625 C215.04454022 169.35937347 215.05363977 170.9921861 215.0625 172.625 C215.07087891 173.43324219 215.07925781 174.24148438 215.08789062 175.07421875 C215.1058955 179.50341918 214.89622662 183.63883424 214 188 C213.01 188 212.02 188 211 188 C211.01160156 188.97582031 211.02320313 189.95164062 211.03515625 190.95703125 C211.04869141 192.86548828 211.04869141 192.86548828 211.0625 194.8125 C211.07410156 196.07707031 211.08570313 197.34164062 211.09765625 198.64453125 C211 202 211 202 210 205 C209.01 205 208.02 205 207 205 C206.67 206.98 206.34 208.96 206 211 C205.01 211 204.02 211 203 211 C203 213.97 203 216.94 203 220 C201.68 220 200.36 220 199 220 C199 221.98 199 223.96 199 226 C197.68 226 196.36 226 195 226 C195 227.98 195 229.96 195 232 C193.68 232 192.36 232 191 232 C191 233.98 191 235.96 191 238 C189.68 238 188.36 238 187 238 C187 238.99 187 239.98 187 241 C185.68 241 184.36 241 183 241 C183 242.98 183 244.96 183 247 C181.68 247 180.36 247 179 247 C179 247.99 179 248.98 179 250 C177.68 250 176.36 250 175 250 C175 250.99 175 251.98 175 253 C173.68 253 172.36 253 171 253 C171 253.99 171 254.98 171 256 C168.36 256 165.72 256 163 256 C163 256.99 163 257.98 163 259 C162.01 259 161.02 259 160 259 C160 259.99 160 260.98 160 262 C158.68 262 157.36 262 156 262 C156 262.99 156 263.98 156 265 C153.36 265 150.72 265 148 265 C148 265.99 148 266.98 148 268 C145.36 268 142.72 268 140 268 C140 268.99 140 269.98 140 271 C137.36 271 134.72 271 132 271 C132 271.66 132 272.32 132 273 C129.11788698 273.96070434 127.30149956 274.10581883 124.3125 274.0625 C123.50425781 274.05347656 122.69601562 274.04445313 121.86328125 274.03515625 C120.94095703 274.01775391 120.94095703 274.01775391 120 274 C120 274.66 120 275.32 120 276 C117.24921116 276.91692961 115.64051087 277.10886083 112.8125 277.0625 C111.554375 277.041875 110.29625 277.02125 109 277 C109 277.99 109 278.98 109 280 C104.05 280 99.1 280 94 280 C94 280.99 94 281.98 94 283 C87.4 283 80.8 283 74 283 C74 283.99 74 284.98 74 286 C50.57 286 27.14 286 3 286 C3 285.01 3 284.02 3 283 C-3.27 283 -9.54 283 -16 283 C-16 282.01 -16 281.02 -16 280 C-21.28 280 -26.56 280 -32 280 C-32 279.01 -32 278.02 -32 277 C-35.96 277 -39.92 277 -44 277 C-44 276.01 -44 275.02 -44 274 C-47.96 274 -51.92 274 -56 274 C-56 273.01 -56 272.02 -56 271 C-58.31 271 -60.62 271 -63 271 C-63 270.01 -63 269.02 -63 268 C-64.32 268 -65.64 268 -67 268 C-67 267.01 -67 266.02 -67 265 C-69.64 265 -72.28 265 -75 265 C-75 264.01 -75 263.02 -75 262 C-76.32 262 -77.64 262 -79 262 C-79 261.01 -79 260.02 -79 259 C-81.31 258.67 -83.62 258.34 -86 258 C-86 257.34 -86 256.68 -86 256 C-87.32 256 -88.64 256 -90 256 C-90 255.01 -90 254.02 -90 253 C-91.32 253 -92.64 253 -94 253 C-94 252.01 -94 251.02 -94 250 C-95.32 250 -96.64 250 -98 250 C-98 249.01 -98 248.02 -98 247 C-99.32 247 -100.64 247 -102 247 C-102 246.01 -102 245.02 -102 244 C-103.32 244 -104.64 244 -106 244 C-106 242.02 -106 240.04 -106 238 C-107.32 238 -108.64 238 -110 238 C-110 237.01 -110 236.02 -110 235 C-111.32 235 -112.64 235 -114 235 C-114 233.02 -114 231.04 -114 229 C-115.32 229 -116.64 229 -118 229 C-118 227.02 -118 225.04 -118 223 C-119.32 223 -120.64 223 -122 223 C-122 220.03 -122 217.06 -122 214 C-122.99 214 -123.98 214 -125 214 C-125.33 211.03 -125.66 208.06 -126 205 C-126.99 205 -127.98 205 -129 205 C-129.495 199.06 -129.495 199.06 -130 193 C-130.99 193 -131.98 193 -133 193 C-134.18681726 189.43954823 -134.09689832 186.56191663 -134.0625 182.8125 C-134.05347656 181.54019531 -134.04445313 180.26789063 -134.03515625 178.95703125 C-134.02355469 177.98121094 -134.01195312 177.00539063 -134 176 C-134.99 176 -135.98 176 -137 176 C-138.25816516 170.16771104 -138.14408385 164.40319934 -138.1328125 158.46875 C-138.13376923 157.35947144 -138.13472595 156.25019287 -138.13571167 155.1072998 C-138.13639067 152.76733341 -138.13455592 150.4273651 -138.13037109 148.08740234 C-138.12501894 144.51265214 -138.13032561 140.93802757 -138.13671875 137.36328125 C-138.13605792 135.08593722 -138.13477665 132.80859328 -138.1328125 130.53125 C-138.13483673 129.46547729 -138.13686096 128.39970459 -138.13894653 127.30163574 C-138.12359034 122.42395816 -138.0339965 117.79314365 -137 113 C-136.34 113 -135.68 113 -135 113 C-134.34 106.4 -133.68 99.8 -133 93 C-132.34 93 -131.68 93 -131 93 C-130.34 89.7 -129.68 86.4 -129 83 C-128.01 83 -127.02 83 -126 83 C-126 80.03 -126 77.06 -126 74 C-124.35 74 -122.7 74 -121 74 C-121 71.03 -121 68.06 -121 65 C-120.01 65 -119.02 65 -118 65 C-118 63.02 -118 61.04 -118 59 C-116.68 59 -115.36 59 -114 59 C-114 56.36 -114 53.72 -114 51 C-112.68 51 -111.36 51 -110 51 C-110 50.01 -110 49.02 -110 48 C-108.68 48 -107.36 48 -106 48 C-106 46.02 -106 44.04 -106 42 C-104.68 42 -103.36 42 -102 42 C-102 41.01 -102 40.02 -102 39 C-100.68 39 -99.36 39 -98 39 C-98 38.01 -98 37.02 -98 36 C-96.68 36 -95.36 36 -94 36 C-94 35.01 -94 34.02 -94 33 C-92.68 33 -91.36 33 -90 33 C-90 32.01 -90 31.02 -90 30 C-88.68 30 -87.36 30 -86 30 C-86 29.01 -86 28.02 -86 27 C-84.68 27 -83.36 27 -82 27 C-82 26.01 -82 25.02 -82 24 C-79.69 24 -77.38 24 -75 24 C-75 23.01 -75 22.02 -75 21 C-73.68 21 -72.36 21 -71 21 C-71 20.01 -71 19.02 -71 18 C-68.36 18 -65.72 18 -63 18 C-63 17.01 -63 16.02 -63 15 C-61.68 15 -60.36 15 -59 15 C-59 14.01 -59 13.02 -59 12 C-56.36 12 -53.72 12 -51 12 C-51 11.01 -51 10.02 -51 9 C-45.72 9 -40.44 9 -35 9 C-35 8.01 -35 7.02 -35 6 C-31.37 6 -27.74 6 -24 6 C-24 5.01 -24 4.02 -24 3 C-16.08 3 -8.16 3 0 3 C0 2.01 0 1.02 0 0 Z " fill="#FE0000" transform="translate(1361,764)"/>
<path d="M0 0 C905.85 0 1811.7 0 2745 0 C2745 0.33 2745 0.66 2745 1 C1839.48 1 933.96 1 1 1 C1 773.86 1 1546.72 1 2343 C906.52 2343 1812.04 2343 2745 2343 C2745 2343.99 2745 2344.98 2745 2346 C1839.15 2346 933.3 2346 0 2346 C0 1571.82 0 797.64 0 0 Z " fill="#A8B3B8" transform="translate(62,49)"/>
<path d="M0 0 C945.45 0 1890.9 0 2865 0 C2865 1.32 2865 2.64 2865 4 C1919.55 4 974.1 4 0 4 C0 2.68 0 1.36 0 0 Z " fill="#808F97" transform="translate(0,0)"/>
<path d="M0 0 C553.41 0.495 553.41 0.495 1118 1 C1118 1.99 1118 2.98 1118 4 C751.37 4 384.74 4 7 4 C7 3.01 7 2.02 7 1 C4.69 1 2.38 1 0 1 C0 0.67 0 0.34 0 0 Z " fill="#568CA5" transform="translate(868,2294)"/>
<path d="M0 0 C322.41 0 644.82 0 977 0 C977 0.99 977 1.98 977 3 C654.59 3 332.18 3 0 3 C0 2.01 0 1.02 0 0 Z " fill="#0D1D25" transform="translate(942,2214)"/>
<path d="M0 0 C1.32 0 2.64 0 4 0 C4 229.02 4 458.04 4 694 C2.68 693.67 1.36 693.34 0 693 C0 464.31 0 235.62 0 0 Z " fill="#DA0000" transform="translate(1560,1193)"/>
<path d="M0 0 C1.32 0 2.64 0 4 0 C4 0.99 4 1.98 4 3 C3.01 3 2.02 3 1 3 C1 4.65 1 6.3 1 8 C-0.32 8 -1.64 8 -3 8 C-3 9.98 -3 11.96 -3 14 C-4.32 14 -5.64 14 -7 14 C-6.99913188 14.67678202 -6.99826375 15.35356404 -6.99736932 16.05085461 C-6.90136916 90.90619016 -6.80610367 165.76152662 -6.71398926 240.61686707 C-6.71257952 241.76232645 -6.71116978 242.90778584 -6.70971733 244.08795612 C-6.67897276 269.07195945 -6.64833924 294.05596291 -6.61781773 319.03996651 C-6.60281682 331.31871793 -6.58779176 343.59746933 -6.57275391 355.8762207 C-6.57125906 357.09713078 -6.56976422 358.31804085 -6.56822408 359.5759482 C-6.52537168 394.56735589 -6.48139581 429.55876198 -6.43630749 464.55016687 C-6.28601943 581.1894136 -6.14082808 697.82867097 -6.44084306 1654.57263105 C-6.48607031 1687.68928825 -6.52989821 1720.80594708 -6.57275391 1753.92260742 C-6.57424796 1755.07679955 -6.57574202 1756.23099168 -6.57728135 1757.42015933 C-6.59230502 1769.02721968 -6.60730639 1780.63428006 -6.62229155 1792.24134046 C-6.65272882 1815.81676234 -6.68331342 1839.39218402 -6.71398926 1862.96760559 C-6.71539475 1864.04791279 -6.71680024 1865.12821998 -6.71824832 1866.24126376 C-6.80966463 1936.49417917 -6.90449458 2006.74709004 -7 2077 C-6.01 2077.33 -5.02 2077.66 -4 2078 C-5.32 2078 -6.64 2078 -8 2078 C-8 1395.89 -8 713.78 -8 11 C-6.68 11 -5.36 11 -4 11 C-4 9.02 -4 7.04 -4 5 C-2.68 5 -1.36 5 0 5 C0 3.35 0 1.7 0 0 Z " fill="#BED2DC" transform="translate(844,190)"/>
<path d="M0 0 C6.75 0.75 6.75 0.75 9 3 C20.06655529 4.60838786 31.56056383 4.14182109 42.71743011 4.12584114 C44.57735203 4.12688622 46.43727375 4.12836891 48.29719502 4.13024551 C53.39151441 4.13412451 58.48581474 4.13181751 63.5801338 4.12846755 C69.1287542 4.12592443 74.67737174 4.12919332 80.22599173 4.13171089 C89.94525609 4.1353192 99.6645149 4.13521507 109.38377953 4.13266373 C123.15986108 4.12905729 136.93593889 4.13052843 150.7120203 4.13344277 C175.70623295 4.13872656 200.70044341 4.13909326 225.69465637 4.13629532 C226.80462084 4.13617113 226.80462084 4.13617113 227.93700883 4.13604442 C228.67817452 4.13596149 229.41934021 4.13587856 230.18296547 4.13579312 C252.77270865 4.13326888 275.36245093 4.13261904 297.95219421 4.13381577 C299.4655332 4.13389324 300.97887219 4.1339704 302.49221117 4.13404724 C308.57385678 4.13435771 314.65550239 4.13467638 320.73714799 4.135007 C337.73734009 4.13592396 354.73753219 4.13649459 371.7377243 4.13679314 C372.51184074 4.13680678 373.28595718 4.13682043 374.0835317 4.13683449 C398.74628293 4.1372437 423.40903384 4.13611721 448.07178497 4.13394356 C448.87157304 4.13387331 449.67136111 4.13380306 450.49538518 4.13373068 C463.48301794 4.13258577 476.47065069 4.13136629 489.45828344 4.13014051 C540.96714426 4.12528426 592.47600248 4.12550966 643.98486328 4.13037109 C656.96598053 4.13159231 669.94709777 4.13280337 682.92821503 4.13394356 C683.72753471 4.13401401 684.5268544 4.13408445 685.35039589 4.13415704 C709.9876892 4.13631356 734.6249823 4.13722743 759.2622757 4.13679314 C760.03582202 4.13677955 760.80936835 4.13676597 761.60635548 4.13675197 C778.58773339 4.13643948 795.56911128 4.13580581 812.55048918 4.13488263 C818.62666287 4.1345535 824.70283655 4.13424042 830.77901024 4.13393192 C832.290572 4.13385453 833.80213376 4.1337758 835.31369551 4.13369573 C857.89679445 4.13250265 880.47989236 4.13351758 903.06299117 4.13604442 C903.80296748 4.13612722 904.54294379 4.13621001 905.30534363 4.13629532 C906.04395188 4.136378 906.78256014 4.13646068 907.54355046 4.13654587 C932.46638837 4.13930531 957.38922366 4.13828701 982.31206119 4.13301457 C996.67949089 4.13005089 1011.04691536 4.12988924 1025.41434501 4.13366075 C1035.00988471 4.13590191 1044.60541943 4.13450975 1054.20095839 4.13015598 C1059.66892935 4.12777606 1065.136888 4.1269663 1070.60485858 4.13056196 C1075.58376418 4.13380264 1080.56264658 4.13240486 1085.54155051 4.1273813 C1087.32703986 4.12637805 1089.11253116 4.12702989 1090.89801896 4.12958724 C1109.04704355 5.21082331 1109.04704355 5.21082331 1126 1 C1128.140625 0.8046875 1128.140625 0.8046875 1130.25 0.875 C1132.10625 0.936875 1132.10625 0.936875 1134 1 C1132.68 1.33 1131.36 1.66 1130 2 C1130 2.99 1130 3.98 1130 5 C1124.60376256 5.76019329 1119.35150757 6.14369205 1113.89826488 6.12534916 C1113.11821971 6.12675148 1112.33817454 6.1281538 1111.53449164 6.12959861 C1108.9238685 6.13307491 1106.31330475 6.12944351 1103.7026825 6.12584114 C1101.80275416 6.12688449 1099.90282603 6.12836591 1098.00289834 6.13024551 C1092.76491315 6.13414916 1087.52694632 6.13180453 1082.28896143 6.12846755 C1076.59687665 6.12593642 1070.90479475 6.12918856 1065.21271038 6.13171089 C1055.23091017 6.13532795 1045.24911537 6.1352097 1035.26731491 6.13266373 C1024.55683647 6.12993929 1013.84636187 6.12933206 1003.13588333 6.13140106 C1002.12119329 6.13159482 1002.12119329 6.13159482 1001.08600446 6.13179249 C998.33089304 6.13232576 995.57578163 6.13287447 992.82067021 6.13344277 C967.1575153 6.1387326 941.4943625 6.13909059 915.83120728 6.13629532 C914.69045776 6.13617113 914.69045776 6.13617113 913.5266628 6.13604442 C912.38409096 6.13592003 912.38409096 6.13592003 911.21843687 6.13579312 C888.0224452 6.13327103 864.82645442 6.13261804 841.63046265 6.13381577 C840.07780203 6.13389324 838.52514141 6.1339704 836.9724808 6.13404724 C830.73314973 6.1343577 824.49381866 6.13467636 818.25448759 6.135007 C800.81243489 6.13592406 783.37038219 6.13649462 765.92832947 6.13679314 C764.73687544 6.13681361 764.73687544 6.13681361 763.52135163 6.13683449 C738.20735461 6.13724383 712.89335789 6.13611654 687.57936096 6.13394356 C686.75819469 6.13387331 685.93702842 6.13380306 685.09097832 6.13373068 C671.75535058 6.1325857 658.41972285 6.13136625 645.08409513 6.13014051 C592.19180476 6.12528409 539.29951692 6.12550949 486.40722656 6.13037109 C473.07836406 6.13159226 459.74950155 6.1328033 446.42063904 6.13394356 C445.18961777 6.13404923 445.18961777 6.13404923 443.93372738 6.13415704 C418.64637506 6.13631287 393.35902294 6.13722756 368.07167053 6.13679314 C367.27794941 6.13677955 366.4842283 6.13676597 365.66645502 6.13675197 C348.24385582 6.13643951 330.82125664 6.1358059 313.39865746 6.13488263 C307.16486834 6.13455348 300.93107922 6.13424041 294.69729009 6.13393192 C293.14645281 6.13385453 291.59561554 6.1337758 290.04477826 6.13369573 C266.85429753 6.13250159 243.6638178 6.13351962 220.4733372 6.13604442 C219.33258768 6.13616862 219.33258768 6.13616862 218.16879272 6.13629532 C217.40969289 6.136378 216.65059305 6.13646068 215.86849019 6.13654587 C190.28013822 6.13930251 164.69178879 6.13829269 139.10343719 6.13301457 C136.35699702 6.13246221 133.61055684 6.13192551 130.86411667 6.13140106 C130.19008303 6.13127086 129.51604939 6.13114065 128.8215905 6.1310065 C117.48897315 6.12891224 106.15635997 6.13077023 94.82374277 6.13366075 C84.97528006 6.13589622 75.12682221 6.13452011 65.27836022 6.13015598 C59.66006631 6.1277681 54.04178443 6.1269827 48.42349088 6.13056196 C43.31629336 6.13378257 38.20911858 6.13243386 33.10192274 6.1273813 C31.2621257 6.12637097 29.42232679 6.12704853 27.58253123 6.12958724 C25.08890487 6.13278502 22.5953578 6.12983204 20.10173512 6.12534916 C19.03560255 6.12893528 19.03560255 6.12893528 17.94793196 6.13259384 C13.21134406 6.11524743 8.68026232 5.65933051 4 5 C4 4.34 4 3.68 4 3 C2.68 3 1.36 3 0 3 C0 2.01 0 1.02 0 0 Z " fill="#407D99" transform="translate(864,2289)"/>
<path d="M0 0 C364.98 0 729.96 0 1106 0 C1106 0.66 1106 1.32 1106 2 C1108.64 2.33 1111.28 2.66 1114 3 C1113.67 3.66 1113.34 4.32 1113 5 C1103.595 4.01 1103.595 4.01 1094 3 C1094 2.34 1094 1.68 1094 1 C966.64073775 1.09654415 966.64073775 1.09654415 784.57872009 1.2436676 C783.03811609 1.24495213 781.49751209 1.24623666 779.95690808 1.24752118 C747.6216142 1.27448615 715.2863205 1.30165667 682.95102699 1.32906473 C666.70874975 1.3428318 650.46647249 1.35655936 634.22419519 1.37024957 C631.77405757 1.37231496 629.32391996 1.37438148 626.87378234 1.37644804 C589.13010967 1.40827292 551.38643655 1.43924869 513.64276123 1.46777344 C512.83079219 1.4683871 512.01882314 1.46900076 511.18224898 1.46963302 C498.09030126 1.47952236 484.99835348 1.48934067 471.90640569 1.49914955 C434.21297245 1.52739168 396.51953994 1.55615622 358.82610989 1.58840275 C358.05152321 1.58906515 357.27693653 1.58972755 356.47887753 1.59041002 C339.47777624 1.60495819 322.47667518 1.61977673 305.47557434 1.63485154 C298.63565247 1.6409117 291.79573056 1.64693291 284.95580864 1.65294075 C283.83288572 1.65392848 283.83288572 1.65392848 282.68727749 1.65493616 C258.53796531 1.67615859 234.38865203 1.69420626 210.23933613 1.71060037 C185.92717534 1.72711948 161.61501918 1.74672837 137.3028645 1.77067431 C122.20644364 1.78553983 107.11002584 1.79768846 92.0135994 1.80536438 C82.3994212 1.81052395 72.78525069 1.81925843 63.17107827 1.83098774 C57.68071779 1.83758103 52.19036843 1.84253682 46.70000375 1.84316199 C41.71698101 1.84375975 36.73398504 1.84885459 31.75097033 1.85772062 C29.94825812 1.86010725 28.14554271 1.86077636 26.34282928 1.8596265 C23.91585823 1.85831531 21.48897534 1.86302898 19.06201416 1.86938947 C18.35121099 1.86753985 17.64040782 1.86569023 16.90806516 1.86378455 C13.67441894 1.60453655 13.67441894 1.60453655 11 3 C9.63547671 3.21389724 8.2618014 3.37029434 6.88671875 3.5 C5.6327832 3.62375 5.6327832 3.62375 4.35351562 3.75 C3.47373047 3.8325 2.59394531 3.915 1.6875 4 C-0.03801888 4.16396913 -1.76329237 4.33054599 -3.48828125 4.5 C-4.64130737 4.60828125 -4.64130737 4.60828125 -5.81762695 4.71875 C-7.94078918 4.9923693 -9.93656859 5.43700607 -12 6 C-12 5.01 -12 4.02 -12 3 C-6.06 2.505 -6.06 2.505 0 2 C0 1.34 0 0.68 0 0 Z " fill="#115E80" transform="translate(880,175)"/>
<path d="M0 0 C366.3 0 732.6 0 1110 0 C1110 0.33 1110 0.66 1110 1 C745.02 1 380.04 1 4 1 C4 1.66 4 2.32 4 3 C0.0186217 4.3271261 -3.85045227 4.06915913 -8 4 C-8 4.99 -8 5.98 -8 7 C-10.64 7 -13.28 7 -16 7 C-14.68 6.67 -13.36 6.34 -12 6 C-12 5.01 -12 4.02 -12 3 C-8.37 3 -4.74 3 -1 3 C-0.67 2.01 -0.34 1.02 0 0 Z " fill="#8AAFC0" transform="translate(876,174)"/>
<path d="M0 0 C8.57142857 -0.14285714 8.57142857 -0.14285714 12 1 C12 1.66 12 2.32 12 3 C375.66 3 739.32 3 1114 3 C1114 2.34 1114 1.68 1114 1 C1115.32 1 1116.64 1 1118 1 C1118 1.99 1118 2.98 1118 4 C751.37 4 384.74 4 7 4 C7 3.01 7 2.02 7 1 C4.69 1 2.38 1 0 1 C0 0.67 0 0.34 0 0 Z " fill="#A8C4D0" transform="translate(868,2294)"/>
<path d="M0 0 C1.32 0 2.64 0 4 0 C4 0.99 4 1.98 4 3 C3.01 3 2.02 3 1 3 C1.33 247.53 1.66 492.06 2 744 C2.66 744 3.32 744 4 744 C4 752.91 4 761.82 4 771 C2.68 771 1.36 771 0 771 C0 516.57 0 262.14 0 0 Z " fill="#780000" transform="translate(1239,1190)"/>
<path d="M0 0 C0.33 0 0.66 0 1 0 C1 230.01 1 460.02 1 697 C1.66 697 2.32 697 3 697 C3.90238747 699.70716242 4.11851302 701.23776768 4.09765625 704.01171875 C4.09443359 704.76904297 4.09121094 705.52636719 4.08789062 706.30664062 C4.07951172 707.09232422 4.07113281 707.87800781 4.0625 708.6875 C4.05798828 709.48478516 4.05347656 710.28207031 4.04882812 711.10351562 C4.0370585 713.06904257 4.01912348 715.03453085 4 717 C5.32 717 6.64 717 8 717 C8 719.97 8 722.94 8 726 C9.32 726 10.64 726 12 726 C12 727.98 12 729.96 12 732 C11.505 730.515 11.505 730.515 11 729 C9.68 729 8.36 729 7 729 C7 727.02 7 725.04 7 723 C6.01 723 5.02 723 4 723 C2.90493508 719.71480525 2.90039392 717.26336585 2.9375 713.8125 C2.94652344 712.72582031 2.95554687 711.63914062 2.96484375 710.51953125 C2.97644531 709.68808594 2.98804688 708.85664062 3 708 C2.01 708 1.02 708 0 708 C0 474.36 0 240.72 0 0 Z " fill="#0F0000" transform="translate(1564,1193)"/>
<path d="M0 0 C1.32 0 2.64 0 4 0 C4 226.05 4 452.1 4 685 C3.67 685 3.34 685 3 685 C3 460.93 3 236.86 3 6 C2.01 6 1.02 6 0 6 C0 4.02 0 2.04 0 0 Z " fill="#C90000" transform="translate(1560,1193)"/>
<path d="M0 0 C1.32 0 2.64 0 4 0 C4 0.66 4 1.32 4 2 C6.97851562 1.90234375 6.97851562 1.90234375 9.95703125 1.8046875 C12 2 12 2 15 4 C17.04869074 4.44429438 19.11454293 4.81294195 21.1875 5.125 C22.81751953 5.37636719 22.81751953 5.37636719 24.48046875 5.6328125 C25.72763672 5.81457031 25.72763672 5.81457031 27 6 C27 6.66 27 7.32 27 8 C29.64 8 32.28 8 35 8 C35 8.99 35 9.98 35 11 C42.92 11 50.84 11 59 11 C59 11.99 59 12.98 59 14 C70.16131245 13.91570426 81.3224803 13.82086306 92.48358631 13.71247292 C97.66586938 13.66247883 102.84813176 13.61614908 108.03051758 13.578125 C113.02968976 13.54131151 118.02869009 13.49496233 123.02771568 13.44193649 C124.93710001 13.42337159 126.84652121 13.40827142 128.75596046 13.39665604 C131.4257844 13.37982942 134.09521293 13.35080327 136.76489258 13.31884766 C137.55827026 13.31668747 138.35164795 13.31452728 139.16906738 13.31230164 C142.97030773 13.25399096 144.760595 13.15960333 148 11 C150.17651367 10.77294922 150.17651367 10.77294922 152.66796875 10.8046875 C153.56064453 10.81113281 154.45332031 10.81757812 155.37304688 10.82421875 C156.76620117 10.84935547 156.76620117 10.84935547 158.1875 10.875 C159.12787109 10.88402344 160.06824219 10.89304687 161.03710938 10.90234375 C163.35832968 10.92590944 165.67903644 10.95880884 168 11 C168 10.34 168 9.68 168 9 C169.32 9 170.64 9 172 9 C172 9.99 172 10.98 172 12 C167.05 12 162.1 12 157 12 C157 12.99 157 13.98 157 15 C150.4 15 143.8 15 137 15 C137 15.99 137 16.98 137 18 C113.57 18 90.14 18 66 18 C66 17.01 66 16.02 66 15 C59.73 15 53.46 15 47 15 C47 14.01 47 13.02 47 12 C41.72 12 36.44 12 31 12 C31 11.01 31 10.02 31 9 C27.04 9 23.08 9 19 9 C19 8.01 19 7.02 19 6 C15.04 6 11.08 6 7 6 C7 5.01 7 4.02 7 3 C4.69 3 2.38 3 0 3 C0 2.01 0 1.02 0 0 Z " fill="#B90000" transform="translate(1298,1032)"/>
<path d="M0 0 C0.33 0 0.66 0 1 0 C1 4.95 1 9.9 1 15 C0.01 15 -0.98 15 -2 15 C-2.33 42.72 -2.66 70.44 -3 99 C-2.01 99 -1.02 99 0 99 C0 100.65 0 102.3 0 104 C-0.99 104 -1.98 104 -3 104 C-4.18681726 100.43954823 -4.09689832 97.56191663 -4.0625 93.8125 C-4.05347656 92.54019531 -4.04445313 91.26789063 -4.03515625 89.95703125 C-4.02355469 88.98121094 -4.01195312 88.00539063 -4 87 C-4.99 87 -5.98 87 -7 87 C-8.25816516 81.16771104 -8.14408385 75.40319934 -8.1328125 69.46875 C-8.13376923 68.35947144 -8.13472595 67.25019287 -8.13571167 66.1072998 C-8.13639067 63.76733341 -8.13455592 61.4273651 -8.13037109 59.08740234 C-8.12501894 55.51265214 -8.13032561 51.93802757 -8.13671875 48.36328125 C-8.13605792 46.08593722 -8.13477665 43.80859328 -8.1328125 41.53125 C-8.13483673 40.46547729 -8.13686096 39.39970459 -8.13894653 38.30163574 C-8.12359034 33.42395816 -8.0339965 28.79314365 -7 24 C-6.34 24 -5.68 24 -5 24 C-4.34 17.4 -3.68 10.8 -3 4 C-2.34 4 -1.68 4 -1 4 C-0.67 2.68 -0.34 1.36 0 0 Z " fill="#C70000" transform="translate(1231,853)"/>
<path d="M0 0 C1.32 0 2.64 0 4 0 C4 0.99 4 1.98 4 3 C3.01 3 2.02 3 1 3 C1 4.65 1 6.3 1 8 C-0.32 8 -1.64 8 -3 8 C-3 9.98 -3 11.96 -3 14 C-4.32 14 -5.64 14 -7 14 C-7 125.21 -7 236.42 -7 351 C-7.33 351 -7.66 351 -8 351 C-8 238.8 -8 126.6 -8 11 C-6.68 11 -5.36 11 -4 11 C-4 9.02 -4 7.04 -4 5 C-2.68 5 -1.36 5 0 5 C0 3.35 0 1.7 0 0 Z " fill="#9FBDCB" transform="translate(844,190)"/>
<path d="M0 0 C16.83 0 33.66 0 51 0 C51 0.99 51 1.98 51 3 C51.56396484 2.99476318 52.12792969 2.98952637 52.70898438 2.98413086 C55.30597789 2.96312733 57.90295344 2.95026638 60.5 2.9375 C61.386875 2.92912109 62.27375 2.92074219 63.1875 2.91210938 C68.55823086 2.89236404 73.68633663 3.21164107 79 4 C79 4.99 79 5.98 79 7 C76.36 7 73.72 7 71 7 C70.67 6.01 70.34 5.02 70 4 C41.95 4 13.9 4 -15 4 C-15 4.99 -15 5.98 -15 7 C-22.92 7 -30.84 7 -39 7 C-39 7.99 -39 8.98 -39 10 C-42.63 10 -46.26 10 -50 10 C-50 10.99 -50 11.98 -50 13 C-52.64 13 -55.28 13 -58 13 C-57.01 12.67 -56.02 12.34 -55 12 C-54.67 11.01 -54.34 10.02 -54 9 C-51.69 9 -49.38 9 -47 9 C-47 8.34 -47 7.68 -47 7 C-43.13276369 5.73417781 -39.26848738 5.8881235 -35.25 5.9375 C-34.55261719 5.94201172 -33.85523438 5.94652344 -33.13671875 5.95117188 C-31.42444197 5.9628998 -29.71220967 5.98083347 -28 6 C-28 5.34 -28 4.68 -28 4 C-24.42649959 3.18101378 -21.14340521 2.88188042 -17.48046875 2.90234375 C-16.45888672 2.90556641 -15.43730469 2.90878906 -14.38476562 2.91210938 C-13.32966797 2.92048828 -12.27457031 2.92886719 -11.1875 2.9375 C-10.11306641 2.94201172 -9.03863281 2.94652344 -7.93164062 2.95117188 C-5.28770317 2.96292271 -2.64388048 2.97935213 0 3 C0 2.01 0 1.02 0 0 Z " fill="#0F0000" transform="translate(1376,760)"/>
<path d="M0 0 C0.66 0 1.32 0 2 0 C2 79.53 2 159.06 2 241 C0.68 241 -0.64 241 -2 241 C-2 243.97 -2 246.94 -2 250 C-2.99 250 -3.98 250 -5 250 C-5.33 251.65 -5.66 253.3 -6 255 C-7.32 255 -8.64 255 -10 255 C-10 254.01 -10 253.02 -10 252 C-9.01 252 -8.02 252 -7 252 C-6.87625 251.030625 -6.7525 250.06125 -6.625 249.0625 C-6.41875 248.051875 -6.2125 247.04125 -6 246 C-5.34 245.67 -4.68 245.34 -4 245 C-3.38438582 242.45123766 -3.38438582 242.45123766 -3 239.5 C-2.5625 236.46875 -2.5625 236.46875 -2 234 C-1.34 233.67 -0.68 233.34 0 233 C0 156.11 0 79.22 0 0 Z " fill="#44809B" transform="translate(2023,2024)"/>
<path d="M0 0 C0.33 0 0.66 0 1 0 C1.02287441 41.20759663 1.04050233 82.41519253 1.05106533 123.62279426 C1.05231608 128.48453212 1.0536104 133.34626997 1.05493164 138.20800781 C1.05519395 139.17591776 1.05545626 140.1438277 1.05572652 141.14106825 C1.06008126 156.82616111 1.06796774 172.51125032 1.0771528 188.19634101 C1.08649477 204.28321663 1.09205677 220.37009033 1.09408849 236.45696855 C1.09546259 246.38840252 1.09980707 256.31982617 1.10791647 266.25125697 C1.11319062 273.05584142 1.11480276 279.8604205 1.11350138 286.66500685 C1.11285905 290.59452653 1.11386369 294.52402813 1.11920547 298.45354462 C1.12405694 302.04851846 1.12432707 305.64346199 1.12089889 309.23843721 C1.12027356 311.16015516 1.12459966 313.08187274 1.12908131 315.00358558 C1.12709026 316.14016994 1.12509921 317.2767543 1.12304783 318.44778061 C1.12342755 319.43049682 1.12380727 320.41321304 1.1241985 321.42570853 C1.0110462 323.77104283 0.66798336 325.75716839 0 328 C-1.32 328 -2.64 328 -4 328 C-4 326.02 -4 324.04 -4 322 C-2.68 322 -1.36 322 0 322 C0 215.74 0 109.48 0 0 Z " fill="#F2F6F8" transform="translate(2025,1943)"/>
<path d="M0 0 C1.32 0 2.64 0 4 0 C3.125 3.875 3.125 3.875 2 5 C1.46823602 7.57391641 1.03569201 10.15859517 0.59765625 12.75 C0.40042969 13.4925 0.20320312 14.235 0 15 C-0.99 15.495 -0.99 15.495 -2 16 C-2.33 105.1 -2.66 194.2 -3 286 C-3.33 286 -3.66 286 -4 286 C-4 193.6 -4 101.2 -4 6 C-2.68 6 -1.36 6 0 6 C0 4.02 0 2.04 0 0 Z " fill="#2F718F" transform="translate(841,198)"/>
<path d="M0 0 C6.75 0.75 6.75 0.75 9 3 C21.16125563 4.84906982 33.91152961 4.13577205 46.17358398 4.11352539 C48.37281289 4.11324278 50.5720419 4.11340269 52.77127075 4.1139679 C58.69788782 4.11425299 64.62448435 4.10840302 70.55109668 4.10139394 C76.76103786 4.09511225 82.97097959 4.09455281 89.18092346 4.09336853 C100.92082158 4.09026935 112.66071031 4.08207512 124.40060431 4.07201904 C133.78310091 4.06410102 143.16559652 4.0586439 152.5480957 4.05493164 C153.54133445 4.05453756 153.54133445 4.05453756 154.55463862 4.05413551 C157.87702698 4.05283032 161.19941535 4.05156891 164.52180374 4.05032361 C192.01454102 4.03989124 219.50726998 4.02231933 247 4 C247 4.66 247 5.32 247 6 C217.19856523 6.02282093 187.39713075 6.04051399 157.59568912 6.05106533 C154.07599976 6.05231601 150.55631042 6.05361034 147.03662109 6.05493164 C145.98557711 6.05532511 145.98557711 6.05532511 144.91329992 6.05572652 C133.57318108 6.06007581 122.23306732 6.0679593 110.89295149 6.0771528 C99.25378534 6.08650992 87.61462215 6.09198514 75.97545242 6.09408849 C69.43925732 6.09539245 62.90307374 6.09845849 56.36688232 6.10573006 C50.21431749 6.11251936 44.0617689 6.11461101 37.90920067 6.11310768 C35.65175475 6.1133827 33.39430829 6.11537055 31.13686562 6.11920547 C28.05240547 6.12418813 24.96800651 6.12298139 21.88354492 6.12025452 C20.9924748 6.12316736 20.10140469 6.1260802 19.18333244 6.12908131 C14.03287501 6.11679313 9.09817125 5.74233044 4 5 C4 4.34 4 3.68 4 3 C2.68 3 1.36 3 0 3 C0 2.01 0 1.02 0 0 Z " fill="#357593" transform="translate(864,2289)"/>
<path d="M0 0 C33.66 0 67.32 0 102 0 C102 0.99 102 1.98 102 3 C68.34 3 34.68 3 0 3 C0 2.01 0 1.02 0 0 Z " fill="#500000" transform="translate(1634,1955)"/>
<path d="M0 0 C1.32 0 2.64 0 4 0 C4 79.53 4 159.06 4 241 C3.34 240.67 2.68 240.34 2 240 C2 162.78 2 85.56 2 6 C1.34 6 0.68 6 0 6 C0 4.02 0 2.04 0 0 Z " fill="#437F9A" transform="translate(2021,207)"/>
<path d="M0 0 C2.29679372 -0.00067587 4.59358738 -0.00164823 6.89038086 -0.00289917 C11.66374402 -0.00436048 16.43708828 -0.00227101 21.21044922 0.00244141 C27.3002369 0.00816383 33.38998073 0.00483386 39.47976685 -0.00113106 C44.20689215 -0.00475712 48.93400718 -0.00358914 53.66113281 -0.00100327 C55.90641281 -0.000341 58.15169378 -0.00113765 60.39697266 -0.00348282 C82.78676804 -0.02176121 82.78676804 -0.02176121 92.5 1.1328125 C92.5 1.7928125 92.5 2.4528125 92.5 3.1328125 C84.91 3.1328125 77.32 3.1328125 69.5 3.1328125 C69.5 2.8028125 69.5 2.4728125 69.5 2.1328125 C58.87762933 2.08648944 48.25528265 2.05094342 37.63283157 2.02918816 C32.70049728 2.01874718 27.76823205 2.0045822 22.8359375 1.98193359 C18.0767626 1.96021649 13.31765416 1.94824624 8.55843353 1.94305801 C6.74194034 1.93936023 4.92545082 1.93213947 3.1089859 1.92135239 C0.56639214 1.90685254 -1.97592629 1.90483393 -4.51855469 1.90576172 C-5.64712387 1.89497589 -5.64712387 1.89497589 -6.79849243 1.88397217 C-10.63967689 1.89915735 -13.15748619 2.29842695 -16.5 4.1328125 C-18.91717529 4.37332153 -18.91717529 4.37332153 -21.63574219 4.35986328 C-22.65649841 4.35971222 -23.67725464 4.35956116 -24.72894287 4.35940552 C-25.82386047 4.34908295 -26.91877808 4.33876038 -28.046875 4.328125 C-29.73638275 4.32388016 -29.73638275 4.32388016 -31.46002197 4.31954956 C-35.05678946 4.30835624 -38.65330779 4.28325287 -42.25 4.2578125 C-44.68879849 4.24778162 -47.12760088 4.23865596 -49.56640625 4.23046875 C-55.54435582 4.20841966 -61.52216011 4.17495034 -67.5 4.1328125 C-67.5 4.7928125 -67.5 5.4528125 -67.5 6.1328125 C-71.4813783 7.4599386 -75.35045227 7.20197163 -79.5 7.1328125 C-79.5 6.1428125 -79.5 5.1528125 -79.5 4.1328125 C-75.76689567 2.94463282 -72.22508355 3.01918511 -68.328125 3.03515625 C-67.3044986 3.03727867 -67.3044986 3.03727867 -66.26019287 3.03944397 C-64.09008316 3.04502166 -61.9200783 3.05756996 -59.75 3.0703125 C-58.27474108 3.07533039 -56.79948053 3.07989279 -55.32421875 3.08398438 C-51.71611202 3.09498375 -48.10806625 3.11223297 -44.5 3.1328125 C-44.5 2.4728125 -44.5 1.8128125 -44.5 1.1328125 C-29.65624955 0.22841327 -14.868886 -0.01566125 0 0 Z " fill="#690000" transform="translate(1377.5,1158.8671875)"/>
<path d="M0 0 C29.7 0 59.4 0 90 0 C90 0.33 90 0.66 90 1 C96.27 1.33 102.54 1.66 109 2 C109 2.33 109 2.66 109 3 C73.03 3 37.06 3 0 3 C0 2.01 0 1.02 0 0 Z " fill="#B70000" transform="translate(1361,1160)"/>
<path d="M0 0 C8.57142857 -0.14285714 8.57142857 -0.14285714 12 1 C12 1.66 12 2.32 12 3 C13.12019531 2.98839844 14.24039062 2.97679688 15.39453125 2.96484375 C16.86718583 2.95546378 18.33984222 2.9463638 19.8125 2.9375 C20.55048828 2.92912109 21.28847656 2.92074219 22.04882812 2.91210938 C25.29922068 2.89740172 27.89404895 2.96468298 31 4 C31 4.66 31 5.32 31 6 C38.92 6 46.84 6 55 6 C55 6.99 55 7.98 55 9 C62.64099752 8.91564222 70.28180312 8.82077672 77.92249775 8.71247292 C81.47034604 8.6625143 85.01816463 8.61618445 88.56616211 8.578125 C92.64456014 8.53421731 96.72259545 8.4745677 100.80078125 8.4140625 C102.07585037 8.40251129 103.35091949 8.39096008 104.66462708 8.37905884 C105.84562485 8.35918915 107.02662262 8.33931946 108.2434082 8.31884766 C109.28487503 8.30552399 110.32634186 8.29220032 111.39936829 8.2784729 C114.2348051 8.17782224 114.2348051 8.17782224 117 6 C119.17651367 5.77294922 119.17651367 5.77294922 121.66796875 5.8046875 C123.00698242 5.81435547 123.00698242 5.81435547 124.37304688 5.82421875 C125.76620117 5.84935547 125.76620117 5.84935547 127.1875 5.875 C128.12787109 5.88402344 129.06824219 5.89304687 130.03710938 5.90234375 C132.35832968 5.92590944 134.67903644 5.95880884 137 6 C137 6.33 137 6.66 137 7 C133.04 7 129.08 7 125 7 C125 7.66 125 8.32 125 9 C121.06723848 10.29131933 117.10740191 10.13306411 113.01855469 10.11352539 C112.2181778 10.11367142 111.4178009 10.11381744 110.59317017 10.1139679 C107.95271069 10.1132723 105.31232212 10.1054964 102.671875 10.09765625 C100.83913207 10.09579082 99.00638863 10.09436751 97.17364502 10.09336853 C92.35350158 10.08955322 87.53338835 10.07973133 82.71325684 10.06866455 C77.79321705 10.05842925 72.87317237 10.05386637 67.953125 10.04882812 C58.30207007 10.03810819 48.65103755 10.02104359 39 10 C39 9.01 39 8.02 39 7 C32.73 7 26.46 7 20 7 C20 6.01 20 5.02 20 4 C18.77023437 4.01740234 18.77023437 4.01740234 17.515625 4.03515625 C15.89914062 4.04869141 15.89914062 4.04869141 14.25 4.0625 C12.64898438 4.07990234 12.64898438 4.07990234 11.015625 4.09765625 C8.46631499 4.01510087 6.42066409 3.74617558 4 3 C4 2.34 4 1.68 4 1 C2.68 0.67 1.36 0.34 0 0 Z " fill="#910000" transform="translate(1423,2136)"/>
<path d="M0 0 C0.33 0 0.66 0 1 0 C1 76.23 1 152.46 1 231 C1.66 231 2.32 231 3 231 C3.33 232.98 3.66 234.96 4 237 C3.67 236.34 3.34 235.68 3 235 C2.01 235 1.02 235 0 235 C0 157.45 0 79.9 0 0 Z " fill="#2E718F" transform="translate(837,2024)"/>
<path d="M0 0 C1.2375 0.04125 2.475 0.0825 3.75 0.125 C2.43 0.455 1.11 0.785 -0.25 1.125 C-0.25 2.115 -0.25 3.105 -0.25 4.125 C-7.85947817 5.34627754 -15.42163645 5.25887276 -23.11132812 5.23852539 C-24.61002602 5.23824296 -26.10872406 5.23840234 -27.60742188 5.2389679 C-31.65641804 5.23925369 -35.70538431 5.2333922 -39.75437355 5.22639394 C-43.99310783 5.22012412 -48.23184286 5.21955374 -52.47058105 5.21836853 C-60.4884962 5.21526589 -68.50639765 5.20706693 -76.52430677 5.19701904 C-85.65611836 5.18582471 -94.78793061 5.18033909 -103.91974735 5.17532361 C-122.69650599 5.1648834 -141.47325189 5.14730468 -160.25 5.125 C-160.25 4.465 -160.25 3.805 -160.25 3.125 C-159.55776557 3.12592179 -158.86553114 3.12684359 -158.15231991 3.12779331 C-141.24802775 3.14995272 -124.34374024 3.16646211 -107.43943691 3.17681217 C-99.26438816 3.18195141 -91.08934914 3.1889485 -82.91430664 3.20043945 C-75.78248511 3.21045919 -68.65067065 3.21687065 -61.51884228 3.21908849 C-57.74848338 3.22038331 -53.97814466 3.22339025 -50.20779228 3.23073006 C-46.64639179 3.23760577 -43.08501947 3.23959392 -39.52361298 3.23810768 C-37.61923866 3.2385065 -35.71486728 3.24384067 -33.8105011 3.24942017 C-27.56566173 3.24210394 -21.34167397 3.09731776 -15.1075592 2.74290466 C-13.89062409 2.67431968 -12.67368898 2.60573469 -11.41987705 2.53507137 C-7.18634897 1.98740071 -4.31865897 -0.1439553 0 0 Z " fill="#337492" transform="translate(1994.25,2289.875)"/>
<path d="M0 0 C0.33 0 0.66 0 1 0 C1 5.94 1 11.88 1 18 C1.99 18 2.98 18 4 18 C4 31.86 4 45.72 4 60 C3.01 60 2.02 60 1 60 C1 65.94 1 71.88 1 78 C0.67 78 0.34 78 0 78 C0 52.26 0 26.52 0 0 Z " fill="#9A0000" transform="translate(1575,868)"/>
<path d="M0 0 C0.33 0 0.66 0 1 0 C1.02335165 18.05426397 1.04099034 36.10852403 1.05181217 54.16279984 C1.0569703 62.54555008 1.06400383 70.92829094 1.07543945 79.31103516 C1.08540101 86.61671192 1.09185695 93.92238189 1.09408849 101.22806525 C1.09539309 105.09700089 1.09846315 108.96591709 1.10573006 112.8348465 C1.11251346 116.47582779 1.11461221 120.11678162 1.11310768 123.75776863 C1.11351429 125.73224869 1.11889743 127.70672575 1.12442017 129.68119812 C1.12235817 131.44379723 1.12235817 131.44379723 1.12025452 133.24200439 C1.12117631 134.26335102 1.1220981 135.28469765 1.12304783 136.33699417 C1.01290685 138.72066936 0.68364131 140.72326171 0 143 C-1.32 143 -2.64 143 -4 143 C-4 141.02 -4 139.04 -4 137 C-2.68 137 -1.36 137 0 137 C0 91.79 0 46.58 0 0 Z " fill="#F0F5F7" transform="translate(2025,2128)"/>
<path d="M0 0 C0.33 0 0.66 0 1 0 C1 1.65 1 3.3 1 5 C1.99 5 2.98 5 4 5 C4 10.28 4 15.56 4 21 C3.01 21 2.02 21 1 21 C1 24.96 1 28.92 1 33 C-0.32 33 -1.64 33 -3 33 C-3 34.98 -3 36.96 -3 39 C-4.32 39 -5.64 39 -7 39 C-7 40.98 -7 42.96 -7 45 C-8.32 45 -9.64 45 -11 45 C-11 46.98 -11 48.96 -11 51 C-12.32 51 -13.64 51 -15 51 C-15 50.01 -15 49.02 -15 48 C-14.01 48 -13.02 48 -12 48 C-12 46.02 -12 44.04 -12 42 C-10.68 42 -9.36 42 -8 42 C-8 40.02 -8 38.04 -8 36 C-6.68 36 -5.36 36 -4 36 C-4 33.03 -4 30.06 -4 27 C-2.68 27 -1.36 27 0 27 C0 18.09 0 9.18 0 0 Z " fill="#7F0000" transform="translate(1751,1964)"/>
<path d="M0 0 C0.66 0 1.32 0 2 0 C2 20.79 2 41.58 2 63 C0.68 63 -0.64 63 -2 63 C-2 65.97 -2 68.94 -2 72 C-2.99 72 -3.98 72 -5 72 C-5.33 73.65 -5.66 75.3 -6 77 C-7.32 77 -8.64 77 -10 77 C-10 76.01 -10 75.02 -10 74 C-9.01 74 -8.02 74 -7 74 C-6.87625 73.030625 -6.7525 72.06125 -6.625 71.0625 C-6.41875 70.051875 -6.2125 69.04125 -6 68 C-5.01 67.505 -5.01 67.505 -4 67 C-3.38438582 64.45123766 -3.38438582 64.45123766 -3 61.5 C-2.5625 58.46875 -2.5625 58.46875 -2 56 C-1.01 55.505 -1.01 55.505 0 55 C0 36.85 0 18.7 0 0 Z " fill="#2B6F8E" transform="translate(2023,2202)"/>
<path d="M0 0 C13.48304758 -0.02323138 26.96609034 -0.04096995 40.4491539 -0.05181217 C46.71073873 -0.05701744 52.9723098 -0.06407208 59.23388672 -0.07543945 C65.28337997 -0.08635233 71.33286003 -0.09229456 77.38236237 -0.09487724 C79.68346616 -0.0967164 81.98456928 -0.10030769 84.28566742 -0.10573006 C87.52346828 -0.11305213 90.76121555 -0.11398627 93.99902344 -0.11352539 C94.93770767 -0.11712067 95.87639191 -0.12071594 96.84352112 -0.12442017 C103.60276915 -0.11409585 110.27290542 0.35453804 117 1 C117 1.66 117 2.32 117 3 C109.41 3 101.82 3 94 3 C94 2.67 94 2.34 94 2 C47.47 1.505 47.47 1.505 0 1 C0 0.67 0 0.34 0 0 Z " fill="#310000" transform="translate(1353,1159)"/>
<path d="M0 0 C5.28 0 10.56 0 16 0 C16 0.66 16 1.32 16 2 C26.56 1.67 37.12 1.34 48 1 C48 0.67 48 0.34 48 0 C55.59 0 63.18 0 71 0 C71 0.99 71 1.98 71 3 C47.57 3 24.14 3 0 3 C0 2.01 0 1.02 0 0 Z " fill="#7D0000" transform="translate(1364,1047)"/>
<path d="M0 0 C1.32 0 2.64 0 4 0 C3.125 3.875 3.125 3.875 2 5 C1.46823602 7.57391641 1.03569201 10.15859517 0.59765625 12.75 C0.40042969 13.4925 0.20320312 14.235 0 15 C-0.99 15.495 -0.99 15.495 -2 16 C-2.33 37.12 -2.66 58.24 -3 80 C-3.33 80 -3.66 80 -4 80 C-4 55.58 -4 31.16 -4 6 C-2.68 6 -1.36 6 0 6 C0 4.02 0 2.04 0 0 Z " fill="#115D80" transform="translate(841,198)"/>
<path d="M0 0 C0.33 0 0.66 0 1 0 C1 14.85 1 29.7 1 45 C1.99 45 2.98 45 4 45 C5.06309567 50.17317421 5.11693938 55.12369336 5.0625 60.375 C5.05798828 61.20644531 5.05347656 62.03789063 5.04882812 62.89453125 C5.03713164 64.92971897 5.01919935 66.96486923 5 69 C5.99 69 6.98 69 8 69 C8 70.65 8 72.3 8 74 C7.01 74 6.02 74 5 74 C3.81318274 70.43954823 3.90310168 67.56191663 3.9375 63.8125 C3.94652344 62.54019531 3.95554687 61.26789062 3.96484375 59.95703125 C3.97644531 58.98121094 3.98804688 58.00539063 4 57 C3.01 57 2.02 57 1 57 C-0.28542233 51.10217988 -0.12621861 45.25992091 -0.09765625 39.2578125 C-0.0962413 38.13430389 -0.09482635 37.01079529 -0.09336853 35.85324097 C-0.08778664 32.27713317 -0.07523741 28.70108877 -0.0625 25.125 C-0.05748266 22.69531341 -0.05292016 20.26562583 -0.04882812 17.8359375 C-0.03782314 11.89060349 -0.02110301 5.94530628 0 0 Z " fill="#530000" transform="translate(1223,883)"/>
<path d="M0 0 C1.32 0 2.64 0 4 0 C4 0.99 4 1.98 4 3 C-0.95 3 -5.9 3 -11 3 C-11 3.99 -11 4.98 -11 6 C-33.11 6 -55.22 6 -78 6 C-78 5.67 -78 5.34 -78 5 C-77.31761765 4.99191315 -76.63523529 4.98382629 -75.93217468 4.97549438 C-68.8433436 4.8895772 -61.75479631 4.79007931 -54.66625977 4.68261719 C-52.01917275 4.64428421 -49.37203287 4.60943906 -46.72485352 4.578125 C-42.92444944 4.53256855 -39.12441068 4.47455803 -35.32421875 4.4140625 C-33.54285774 4.39673569 -33.54285774 4.39673569 -31.72550964 4.37905884 C-30.62459488 4.35918915 -29.52368011 4.33931946 -28.3894043 4.31884766 C-27.41899704 4.30552399 -26.44858978 4.29220032 -25.44877625 4.2784729 C-22.74469598 4.15994947 -22.74469598 4.15994947 -20 2 C-17.82348633 1.77294922 -17.82348633 1.77294922 -15.33203125 1.8046875 C-14.43935547 1.81113281 -13.54667969 1.81757812 -12.62695312 1.82421875 C-11.23379883 1.84935547 -11.23379883 1.84935547 -9.8125 1.875 C-8.87212891 1.88402344 -7.93175781 1.89304687 -6.96289062 1.90234375 C-4.64167032 1.92590944 -2.32096356 1.95880884 0 2 C0 1.34 0 0.68 0 0 Z " fill="#E60000" transform="translate(1466,1041)"/>
<path d="M0 0 C0.33 0 0.66 0 1 0 C1 32.01 1 64.02 1 97 C1.66 97 2.32 97 3 97 C3.33 98.98 3.66 100.96 4 103 C3.67 102.34 3.34 101.68 3 101 C2.01 101 1.02 101 0 101 C0 67.67 0 34.34 0 0 Z " fill="#186283" transform="translate(837,2158)"/>
<path d="M0 0 C1.01725914 0.00212242 1.01725914 0.00212242 2.05506897 0.00428772 C4.19431203 0.0098288 6.3334455 0.02236972 8.47265625 0.03515625 C9.93424327 0.04017889 11.39583194 0.04474045 12.85742188 0.04882812 C16.41670151 0.0597788 19.97591816 0.0770018 23.53515625 0.09765625 C24.03015625 1.58265625 24.03015625 1.58265625 24.53515625 3.09765625 C19.62387558 3.14714978 14.71274059 3.18342007 9.80126953 3.20751953 C8.1309964 3.21756775 6.46074083 3.23120861 4.79052734 3.24853516 C2.38765121 3.27283551 -0.01499202 3.28415112 -2.41796875 3.29296875 C-3.16290588 3.30329132 -3.90784302 3.31361389 -4.675354 3.32424927 C-8.43412017 3.32505993 -11.27658086 3.20132743 -14.46484375 1.09765625 C-9.59135552 0.30417 -4.93544191 -0.02047901 0 0 Z " fill="#360000" transform="translate(1508.46484375,2145.90234375)"/>
<path d="M0 0 C0.76171509 -0.00287018 1.52343018 -0.00574036 2.30822754 -0.00869751 C3.91529079 -0.01073484 5.52237902 -0.00522808 7.12939453 0.00732422 C9.5855264 0.02338373 12.04001289 0.00746554 14.49609375 -0.01171875 C16.05989946 -0.00973626 17.62370414 -0.00589246 19.1875 0 C19.91988892 -0.00607269 20.65227783 -0.01214539 21.40686035 -0.0184021 C26.06225684 0.04563108 27.1603227 0.44836703 31.09375 3.3984375 C16.90375 3.3984375 2.71375 3.3984375 -11.90625 3.3984375 C-7.51377696 0.10408272 -5.18554994 -0.04299663 0 0 Z " fill="#6C0000" transform="translate(1391.90625,760.6015625)"/>
<path d="M0 0 C31.02 0 62.04 0 94 0 C94 0.99 94 1.98 94 3 C92.35 3 90.7 3 89 3 C89 2.34 89 1.68 89 1 C59.63 1 30.26 1 0 1 C0 0.67 0 0.34 0 0 Z " fill="#DC0000" transform="translate(1650,1958)"/>
<path d="M0 0 C4.29 0 8.58 0 13 0 C13 0.99 13 1.98 13 3 C5.08 3 -2.84 3 -11 3 C-11 3.99 -11 4.98 -11 6 C-14.63 6 -18.26 6 -22 6 C-22 6.99 -22 7.98 -22 9 C-24.64 9 -27.28 9 -30 9 C-29.01 8.67 -28.02 8.34 -27 8 C-26.67 7.01 -26.34 6.02 -26 5 C-23.69 5 -21.38 5 -19 5 C-19 4.34 -19 3.68 -19 3 C-15.13276369 1.73417781 -11.26848738 1.8881235 -7.25 1.9375 C-6.55261719 1.94201172 -5.85523438 1.94652344 -5.13671875 1.95117188 C-3.42444197 1.9628998 -1.71220967 1.98083347 0 2 C0 1.34 0 0.68 0 0 Z " fill="#3C0000" transform="translate(1348,764)"/>
<path d="M0 0 C0.33 0 0.66 0 1 0 C1 4.95 1 9.9 1 15 C0.01 15 -0.98 15 -2 15 C-2.01981934 15.62044189 -2.03963867 16.24088379 -2.06005859 16.88012695 C-2.15531845 19.69134537 -2.26499302 22.50182166 -2.375 25.3125 C-2.4059375 26.28896484 -2.436875 27.26542969 -2.46875 28.27148438 C-2.50742188 29.20927734 -2.54609375 30.14707031 -2.5859375 31.11328125 C-2.63306885 32.40939331 -2.63306885 32.40939331 -2.68115234 33.73168945 C-3 36 -3 36 -5 39 C-7.10428384 33.87080814 -7.21755666 29.4389165 -7 24 C-6.34 24 -5.68 24 -5 24 C-4.34 17.4 -3.68 10.8 -3 4 C-2.34 4 -1.68 4 -1 4 C-0.67 2.68 -0.34 1.36 0 0 Z " fill="#9A0000" transform="translate(1231,853)"/>
<path d="M0 0 C1.32 0 2.64 0 4 0 C4 2.97 4 5.94 4 9 C5.32 9 6.64 9 8 9 C8 14.94 8 20.88 8 27 C8.99 27 9.98 27 11 27 C10.67 29.97 10.34 32.94 10 36 C9.34 36 8.68 36 8 36 C6.81304447 32.43913342 6.64904582 29.02668976 6.4375 25.3125 C6.39431641 24.61060547 6.35113281 23.90871094 6.30664062 23.18554688 C6.2008264 21.45724794 6.09993419 19.7286489 6 18 C5.01 18 4.02 18 3 18 C3 13.05 3 8.1 3 3 C2.01 3 1.02 3 0 3 C0 2.01 0 1.02 0 0 Z " fill="#A60000" transform="translate(1564,835)"/>
<path d="M0 0 C27.06 0 54.12 0 82 0 C82 0.99 82 1.98 82 3 C79.36 3 76.72 3 74 3 C74 2.34 74 1.68 74 1 C49.58 1 25.16 1 0 1 C0 0.67 0 0.34 0 0 Z " fill="#400000" transform="translate(1654,1955)"/>
<path d="M0 0 C1.32 0 2.64 0 4 0 C4 0.66 4 1.32 4 2 C6.97851562 1.90234375 6.97851562 1.90234375 9.95703125 1.8046875 C12 2 12 2 15 4 C17.04869074 4.44429438 19.11454293 4.81294195 21.1875 5.125 C22.81751953 5.37636719 22.81751953 5.37636719 24.48046875 5.6328125 C25.72763672 5.81457031 25.72763672 5.81457031 27 6 C27 6.66 27 7.32 27 8 C29.64 8 32.28 8 35 8 C35 8.99 35 9.98 35 11 C36.32 11.33 37.64 11.66 39 12 C36.36 12 33.72 12 31 12 C31 11.01 31 10.02 31 9 C27.04 9 23.08 9 19 9 C19 8.01 19 7.02 19 6 C15.04 6 11.08 6 7 6 C7 5.01 7 4.02 7 3 C4.69 3 2.38 3 0 3 C0 2.01 0 1.02 0 0 Z " fill="#AA0000" transform="translate(1298,1032)"/>
<path d="M0 0 C1.32 0 2.64 0 4 0 C4 5.61 4 11.22 4 17 C5.32 17 6.64 17 8 17 C8 19.97 8 22.94 8 26 C9.32 26 10.64 26 12 26 C12 27.98 12 29.96 12 32 C11.67 31.01 11.34 30.02 11 29 C9.68 29 8.36 29 7 29 C7 27.02 7 25.04 7 23 C6.01 23 5.02 23 4 23 C2.90493508 19.71480525 2.90039392 17.26336585 2.9375 13.8125 C2.94652344 12.72582031 2.95554687 11.63914062 2.96484375 10.51953125 C2.97644531 9.68808594 2.98804688 8.85664062 3 8 C2.01 8 1.02 8 0 8 C0 5.36 0 2.72 0 0 Z " fill="#700000" transform="translate(1564,1893)"/>
<path d="M0 0 C0.66 0 1.32 0 2 0 C2.99293809 2.97881427 3.12119785 4.91487239 3.11352539 8.0222168 C3.11341209 9.55346443 3.11341209 9.55346443 3.11329651 11.11564636 C3.10813522 12.21572525 3.10297394 13.31580414 3.09765625 14.44921875 C3.0962413 15.5769722 3.09482635 16.70472565 3.09336853 17.86665344 C3.0877647 21.47362912 3.07521153 25.08054304 3.0625 28.6875 C3.05748549 31.13085848 3.0529225 33.57421793 3.04882812 36.01757812 C3.03779403 42.01173987 3.02105215 48.00586552 3 54 C1.68 54 0.36 54 -1 54 C-1 52.02 -1 50.04 -1 48 C-0.01 48 0.98 48 2 48 C2 34.14 2 20.28 2 6 C1.01 6 0.02 6 -1 6 C-0.67 4.02 -0.34 2.04 0 0 Z " fill="#490000" transform="translate(1577,880)"/>
<path d="M0 0 C1.32 0 2.64 0 4 0 C4 14.85 4 29.7 4 45 C3.34 44.67 2.68 44.34 2 44 C2 31.46 2 18.92 2 6 C1.34 6 0.68 6 0 6 C0 4.02 0 2.04 0 0 Z " fill="#286D8C" transform="translate(2021,207)"/>
<path d="M0 0 C0.33 0 0.66 0 1 0 C1 1.65 1 3.3 1 5 C1.99 5 2.98 5 4 5 C4 10.28 4 15.56 4 21 C3.01 21 2.02 21 1 21 C1 22.98 1 24.96 1 27 C0.67 27 0.34 27 0 27 C0 18.09 0 9.18 0 0 Z " fill="#B50000" transform="translate(1751,1964)"/>
<path d="M0 0 C0 0.66 0 1.32 0 2 C0.56396484 1.99476318 1.12792969 1.98952637 1.70898438 1.98413086 C4.30597789 1.96312733 6.90295344 1.95026638 9.5 1.9375 C10.386875 1.92912109 11.27375 1.92074219 12.1875 1.91210938 C17.55823086 1.89236404 22.68633663 2.21164107 28 3 C28 3.99 28 4.98 28 6 C25.36 6 22.72 6 20 6 C19.67 5.01 19.34 4.02 19 3 C18.01773437 3.00785522 18.01773437 3.00785522 17.015625 3.01586914 C14.01042667 3.036827 11.00524379 3.0497195 8 3.0625 C6.97003906 3.07087891 5.94007812 3.07925781 4.87890625 3.08789062 C-0.85025613 3.10613637 -6.33484101 2.86475384 -12 2 C-8.09971775 -0.60018816 -4.52565431 -0.15085514 0 0 Z " fill="#370000" transform="translate(1427,761)"/>
<path d="M0 0 C0.33 0.66 0.66 1.32 1 2 C2.98 2.495 2.98 2.495 5 3 C5 6.63 5 10.26 5 14 C5.99 14 6.98 14 8 14 C8 17.3 8 20.6 8 24 C6.68 24 5.36 24 4 24 C4 18.06 4 12.12 4 6 C2.68 6 1.36 6 0 6 C0 4.02 0 2.04 0 0 Z " fill="#DC0000" transform="translate(1243,1970)"/>
<path d="M0 0 C1.32 0 2.64 0 4 0 C4 1.98 4 3.96 4 6 C2.68 6 1.36 6 0 6 C0 8.97 0 11.94 0 15 C-0.99 15 -1.98 15 -3 15 C-3.33 16.65 -3.66 18.3 -4 20 C-5.32 20 -6.64 20 -8 20 C-8 19.01 -8 18.02 -8 17 C-7.01 17 -6.02 17 -5 17 C-4.87625 16.030625 -4.7525 15.06125 -4.625 14.0625 C-4.41875 13.051875 -4.2125 12.04125 -4 11 C-3.34 10.67 -2.68 10.34 -2 10 C-1.31068656 7.65092125 -1.31068656 7.65092125 -0.875 4.9375 C-0.70742187 4.01839844 -0.53984375 3.09929688 -0.3671875 2.15234375 C-0.24601562 1.44207031 -0.12484375 0.73179687 0 0 Z " fill="#307290" transform="translate(2021,2259)"/>
<path d="M0 0 C0.33 0 0.66 0 1 0 C1.0247366 5.33853824 1.0428774 10.67704303 1.05493164 16.015625 C1.05995741 17.83138612 1.06677903 19.6471432 1.07543945 21.46289062 C1.08758189 24.0742289 1.09324591 26.68551362 1.09765625 29.296875 C1.10281754 30.10743347 1.10797882 30.91799194 1.11329651 31.75311279 C1.11365296 35.3420417 0.97045947 38.54740786 0 42 C-1.32 42 -2.64 42 -4 42 C-4 40.02 -4 38.04 -4 36 C-2.68 36 -1.36 36 0 36 C0 24.12 0 12.24 0 0 Z " fill="#EFF4F7" transform="translate(2025,2229)"/>
<path d="M0 0 C0.66 0 1.32 0 2 0 C2.33 2.97 2.66 5.94 3 9 C2.01 9 1.02 9 0 9 C0.01160156 9.97582031 0.02320313 10.95164062 0.03515625 11.95703125 C0.04417969 13.22933594 0.05320312 14.50164063 0.0625 15.8125 C0.07410156 17.07707031 0.08570313 18.34164062 0.09765625 19.64453125 C0 23 0 23 -1 26 C-1.99 26 -2.98 26 -4 26 C-4 24.02 -4 22.04 -4 20 C-3.01 20 -2.02 20 -1 20 C-1.01160156 18.80761719 -1.02320313 17.61523438 -1.03515625 16.38671875 C-1.04453592 14.82031406 -1.05363593 13.25390769 -1.0625 11.6875 C-1.07506836 10.50897461 -1.07506836 10.50897461 -1.08789062 9.30664062 C-1.09111328 8.54931641 -1.09433594 7.79199219 -1.09765625 7.01171875 C-1.10289307 6.31522217 -1.10812988 5.61872559 -1.11352539 4.90112305 C-1 3 -1 3 0 0 Z " fill="#AF0000" transform="translate(1572,943)"/>
<path d="M0 0 C0.66 0 1.32 0 2 0 C2 6.93 2 13.86 2 21 C1.01 21 0.02 21 -1 21 C-1.0269501 18.06243881 -1.04681474 15.12512445 -1.0625 12.1875 C-1.07087891 11.35412109 -1.07925781 10.52074219 -1.08789062 9.66210938 C-1.09111328 8.85966797 -1.09433594 8.05722656 -1.09765625 7.23046875 C-1.10289307 6.49207764 -1.10812988 5.75368652 -1.11352539 4.99291992 C-1 3 -1 3 0 0 Z " fill="#C20000" transform="translate(1241,1934)"/>
<path d="M0 0 C5.28 0 10.56 0 16 0 C16 0.66 16 1.32 16 2 C19.96 2 23.92 2 28 2 C28 2.33 28 2.66 28 3 C18.76 3 9.52 3 0 3 C0 2.01 0 1.02 0 0 Z " fill="#6A0000" transform="translate(1364,1047)"/>
<path d="M0 0 C1.32 0 2.64 0 4 0 C3.125 3.875 3.125 3.875 2 5 C1.6068352 6.67884238 1.25914548 8.36850045 0.9375 10.0625 C0.67259766 11.44115234 0.67259766 11.44115234 0.40234375 12.84765625 C0.26957031 13.55792969 0.13679687 14.26820313 0 15 C-1.32 15 -2.64 15 -4 15 C-4 12.03 -4 9.06 -4 6 C-2.68 6 -1.36 6 0 6 C0 4.02 0 2.04 0 0 Z " fill="#367693" transform="translate(841,198)"/>
<path d="M0 0 C1.20527344 0.00322266 2.41054687 0.00644531 3.65234375 0.00976562 C4.90660156 0.01814453 6.16085937 0.02652344 7.453125 0.03515625 C9.35771484 0.04192383 9.35771484 0.04192383 11.30078125 0.04882812 C14.43494336 0.06061069 17.56901041 0.07706209 20.703125 0.09765625 C20.703125 0.42765625 20.703125 0.75765625 20.703125 1.09765625 C14.433125 1.09765625 8.163125 1.09765625 1.703125 1.09765625 C1.703125 1.75765625 1.703125 2.41765625 1.703125 3.09765625 C-2.2782533 4.42478235 -6.14732727 4.16681538 -10.296875 4.09765625 C-10.296875 3.10765625 -10.296875 2.11765625 -10.296875 1.09765625 C-6.82022405 0.02877101 -3.62550022 -0.01710142 0 0 Z " fill="#3E0000" transform="translate(1308.296875,1161.90234375)"/>
<path d="M0 0 C0.74507812 0.00902344 1.49015625 0.01804687 2.2578125 0.02734375 C4.08868059 0.05081642 5.91938238 0.08668475 7.75 0.125 C7.75 0.455 7.75 0.785 7.75 1.125 C14.02 1.455 20.29 1.785 26.75 2.125 C26.75 2.455 26.75 2.785 26.75 3.125 C22.50001502 3.15447599 18.25005697 3.17195643 14 3.1875 C12.21916016 3.20006836 12.21916016 3.20006836 10.40234375 3.21289062 C2.79697478 3.23367032 -4.68341525 2.89644376 -12.25 2.125 C-8.18051131 -0.16309773 -4.56891048 -0.10493964 0 0 Z " fill="#880000" transform="translate(1443.25,1159.875)"/>
<path d="M0 0 C0.74958984 0.00451172 1.49917969 0.00902344 2.27148438 0.01367188 C4.11852383 0.02543646 5.96552213 0.04337135 7.8125 0.0625 C7.8125 0.7225 7.8125 1.3825 7.8125 2.0625 C10.4525 2.0625 13.0925 2.0625 15.8125 2.0625 C15.8125 2.3925 15.8125 2.7225 15.8125 3.0625 C12.06256521 3.12061773 8.31274648 3.15613593 4.5625 3.1875 C2.96728516 3.21263672 2.96728516 3.21263672 1.33984375 3.23828125 C-0.19736328 3.24794922 -0.19736328 3.24794922 -1.765625 3.2578125 C-3.17956543 3.27352295 -3.17956543 3.27352295 -4.62207031 3.28955078 C-7.28701941 3.05369213 -8.90613092 2.41911659 -11.1875 1.0625 C-7.42449626 -0.19183458 -3.91539091 -0.04445422 0 0 Z " fill="#5A0000" transform="translate(1493.1875,1162.9375)"/>
<path d="M0 0 C0.33 0 0.66 0 1 0 C1 2.64 1 5.28 1 8 C1.99 8 2.98 8 4 8 C4.33 9.98 4.66 11.96 5 14 C5.99 14 6.98 14 8 14 C8 14.99 8 15.98 8 17 C8.99 17 9.98 17 11 17 C10.67 17.99 10.34 18.98 10 20 C9.34 20 8.68 20 8 20 C8 19.34 8 18.68 8 18 C6.35 18 4.7 18 3 18 C3 15.69 3 13.38 3 11 C2.01 11 1.02 11 0 11 C0 7.37 0 3.74 0 0 Z " fill="#48839D" transform="translate(841,2262)"/>
<path d="M0 0 C2.64 0 5.28 0 8 0 C8 0.66 8 1.32 8 2 C9.98567708 1.96744792 11.97135417 1.93489583 13.95703125 1.90234375 C16 2 16 2 19 3 C19 3.99 19 4.98 19 6 C16.69 6 14.38 6 12 6 C12 5.01 12 4.02 12 3 C8.04 3 4.08 3 0 3 C0 2.01 0 1.02 0 0 Z " fill="#730000" transform="translate(1462,767)"/>
<path d="M0 0 C1.32 0 2.64 0 4 0 C4 0.99 4 1.98 4 3 C3.01 3 2.02 3 1 3 C1 4.65 1 6.3 1 8 C-0.32 8 -1.64 8 -3 8 C-3 9.98 -3 11.96 -3 14 C-4.32 14 -5.64 14 -7 14 C-7 15.98 -7 17.96 -7 20 C-7.33 20 -7.66 20 -8 20 C-8 17.03 -8 14.06 -8 11 C-6.68 11 -5.36 11 -4 11 C-4 9.02 -4 7.04 -4 5 C-2.68 5 -1.36 5 0 5 C0 3.35 0 1.7 0 0 Z " fill="#9BBBC9" transform="translate(844,190)"/>
<path d="M0 0 C8.57142857 -0.28571429 8.57142857 -0.28571429 12 2 C10.4845248 3.5154752 8.99691651 3.30095408 6.88671875 3.5 C5.6327832 3.62375 5.6327832 3.62375 4.35351562 3.75 C3.47373047 3.8325 2.59394531 3.915 1.6875 4 C-0.03801888 4.16396913 -1.76329237 4.33054599 -3.48828125 4.5 C-4.64130737 4.60828125 -4.64130737 4.60828125 -5.81762695 4.71875 C-7.94078918 4.9923693 -9.93656859 5.43700607 -12 6 C-12 5.01 -12 4.02 -12 3 C-6.06 2.505 -6.06 2.505 0 2 C0 1.34 0 0.68 0 0 Z " fill="#2E7190" transform="translate(880,175)"/>
<path d="M0 0 C3.63 0 7.26 0 11 0 C11 0.66 11 1.32 11 2 C13.64 2.33 16.28 2.66 19 3 C18.67 3.66 18.34 4.32 18 5 C11.73 4.34 5.46 3.68 -1 3 C-0.67 2.01 -0.34 1.02 0 0 Z " fill="#367693" transform="translate(1975,175)"/>
<path d="M0 0 C2.31 0.33 4.62 0.66 7 1 C7 1.66 7 2.32 7 3 C14.92 3 22.84 3 31 3 C31 3.99 31 4.98 31 6 C29.68 6 28.36 6 27 6 C27 5.34 27 4.68 27 4 C26.32420898 4.01047363 25.64841797 4.02094727 24.95214844 4.03173828 C21.88480358 4.07335976 18.81751822 4.09934573 15.75 4.125 C14.15478516 4.15013672 14.15478516 4.15013672 12.52734375 4.17578125 C10.99013672 4.18544922 10.99013672 4.18544922 9.421875 4.1953125 C8.00793457 4.21102295 8.00793457 4.21102295 6.56542969 4.22705078 C3.90048059 3.99119213 2.28136908 3.35661659 0 2 C0 1.34 0 0.68 0 0 Z " fill="#BB0000" transform="translate(1447,2139)"/>
<path d="M0 0 C8.57142857 -0.28571429 8.57142857 -0.28571429 12 2 C4.65939989 3.16532027 -2.57992061 3.1134298 -10 3.0625 C-11.25167969 3.05798828 -12.50335937 3.05347656 -13.79296875 3.04882812 C-16.86202941 3.03711415 -19.93098907 3.02071073 -23 3 C-23 2.67 -23 2.34 -23 2 C-15.41 2 -7.82 2 0 2 C0 1.34 0 0.68 0 0 Z " fill="#370000" transform="translate(1376,761)"/>
<path d="M0 0 C0.99 0 1.98 0 3 0 C3.33 0.66 3.66 1.32 4 2 C4.99 2.33 5.98 2.66 7 3 C7 3.66 7 4.32 7 5 C9.64 5.33 12.28 5.66 15 6 C15 6.66 15 7.32 15 8 C16.65 8 18.3 8 20 8 C19.67 8.99 19.34 9.98 19 11 C19 10.34 19 9.68 19 9 C16.36 9 13.72 9 11 9 C11 8.01 11 7.02 11 6 C8.36 6 5.72 6 3 6 C3 5.01 3 4.02 3 3 C2.01 3 1.02 3 0 3 C0 2.01 0 1.02 0 0 Z " fill="#8C0000" transform="translate(1345,2107)"/>
<path d="M0 0 C0.99 0 1.98 0 3 0 C3 0.66 3 1.32 3 2 C4.65 2 6.3 2 8 2 C8 3.32 8 4.64 8 6 C8.99 6 9.98 6 11 6 C11 9.3 11 12.6 11 16 C10.67 16 10.34 16 10 16 C10 14.02 10 12.04 10 10 C9.401875 9.938125 8.80375 9.87625 8.1875 9.8125 C5.08904655 8.66164586 4.44682943 6.89365887 3 4 C2.67 3.01 2.34 2.02 2 1 C1.34 0.67 0.68 0.34 0 0 Z " fill="#4E87A0" transform="translate(2010,190)"/>
<path d="M0 0 C1.85625 0.061875 1.85625 0.061875 3.75 0.125 C2.43 0.455 1.11 0.785 -0.25 1.125 C-0.25 2.115 -0.25 3.105 -0.25 4.125 C-7.84 4.125 -15.43 4.125 -23.25 4.125 C-23.25 3.795 -23.25 3.465 -23.25 3.125 C-22.21359375 3.07601562 -21.1771875 3.02703125 -20.109375 2.9765625 C-18.73955792 2.90150403 -17.36976752 2.82595753 -16 2.75 C-15.31808594 2.7190625 -14.63617187 2.688125 -13.93359375 2.65625 C-8.87316669 2.36146784 -4.95301331 -0.16510044 0 0 Z " fill="#216888" transform="translate(1994.25,2289.875)"/>
<path d="M0 0 C0 0.66 0 1.32 0 2 C2.97851562 1.90234375 2.97851562 1.90234375 5.95703125 1.8046875 C8 2 8 2 11 4 C11.33 4.66 11.66 5.32 12 6 C9.36 6 6.72 6 4 6 C4 5.01 4 4.02 4 3 C3.38511719 3.02320312 2.77023437 3.04640625 2.13671875 3.0703125 C0.92435547 3.09738281 0.92435547 3.09738281 -0.3125 3.125 C-1.11300781 3.14820312 -1.91351562 3.17140625 -2.73828125 3.1953125 C-5 3 -5 3 -8 1 C-5.10765685 0.17361624 -3.11257569 0 0 0 Z " fill="#7B0000" transform="translate(1388,2125)"/>
<path d="M0 0 C1.32 0.33 2.64 0.66 4 1 C3.01 1 2.02 1 1 1 C1 1.99 1 2.98 1 4 C-0.32 4 -1.64 4 -3 4 C-3 4.99 -3 5.98 -3 7 C-4.32 7 -5.64 7 -7 7 C-7 7.66 -7 8.32 -7 9 C-8.32 9 -9.64 9 -11 9 C-11 9.99 -11 10.98 -11 12 C-12.32 12 -13.64 12 -15 12 C-15 11.01 -15 10.02 -15 9 C-14.01 9 -13.02 9 -12 9 C-12 8.01 -12 7.02 -12 6 C-9.36 6 -6.72 6 -4 6 C-4 5.01 -4 4.02 -4 3 C-2.68 3 -1.36 3 0 3 C0 2.01 0 1.02 0 0 Z " fill="#5D0000" transform="translate(1536,1014)"/>
<path d="M0 0 C0.33 0 0.66 0 1 0 C1 4.95 1 9.9 1 15 C0.01 15 -0.98 15 -2 15 C-3.20272819 12.59454362 -3.10071472 11.05003047 -3.0625 8.375 C-3.05347656 7.55773437 -3.04445313 6.74046875 -3.03515625 5.8984375 C-3.02355469 5.27195312 -3.01195312 4.64546875 -3 4 C-2.34 4 -1.68 4 -1 4 C-0.67 2.68 -0.34 1.36 0 0 Z " fill="#C80000" transform="translate(1231,853)"/>
<path d="M0 0 C1.32 0 2.64 0 4 0 C4 0.99 4 1.98 4 3 C-0.95 3 -5.9 3 -11 3 C-11 3.99 -11 4.98 -11 6 C-13.64 6 -16.28 6 -19 6 C-17.68 5.67 -16.36 5.34 -15 5 C-15 4.01 -15 3.02 -15 2 C-10.05 2 -5.1 2 0 2 C0 1.34 0 0.68 0 0 Z " fill="#A90000" transform="translate(1466,1041)"/>
<path d="M0 0 C6.75 0.75 6.75 0.75 9 3 C11.56916657 3.30599063 14.04758384 3.51087087 16.625 3.625 C17.68460938 3.68300781 17.68460938 3.68300781 18.765625 3.7421875 C20.50998524 3.83647724 22.25495691 3.91932891 24 4 C24 4.33 24 4.66 24 5 C17.4 5 10.8 5 4 5 C4 4.34 4 3.68 4 3 C2.68 3 1.36 3 0 3 C0 2.01 0 1.02 0 0 Z " fill="#286C8C" transform="translate(864,2289)"/>
<path d="M0 0 C3.96 0 7.92 0 12 0 C12 0.66 12 1.32 12 2 C13.32 2.33 14.64 2.66 16 3 C10.72 3 5.44 3 0 3 C0 2.01 0 1.02 0 0 Z " fill="#620000" transform="translate(1462,2143)"/>
<path d="M0 0 C0.33 0.99 0.66 1.98 1 3 C-0.65 3 -2.3 3 -4 3 C-4 3.66 -4 4.32 -4 5 C-4.99 5 -5.98 5 -7 5 C-7 6.32 -7 7.64 -7 9 C-9.64 9 -12.28 9 -15 9 C-14.01 8.67 -13.02 8.34 -12 8 C-11.67 7.01 -11.34 6.02 -11 5 C-10.01 5 -9.02 5 -8 5 C-7.67 4.01 -7.34 3.02 -7 2 C-4.69 2 -2.38 2 0 2 C0 1.34 0 0.68 0 0 Z " fill="#A40000" transform="translate(1622,2113)"/>
<path d="M0 0 C1.32 0 2.64 0 4 0 C4 0.66 4 1.32 4 2 C6.97 2 9.94 2 13 2 C13 2.99 13 3.98 13 5 C15.31 5.33 17.62 5.66 20 6 C20 6.99 20 7.98 20 9 C18.68 9 17.36 9 16 9 C16 8.01 16 7.02 16 6 C14.68 6 13.36 6 12 6 C12 5.01 12 4.02 12 3 C8.04 3 4.08 3 0 3 C0 2.01 0 1.02 0 0 Z " fill="#6D0000" transform="translate(1524,1169)"/>
<path d="M0 0 C3.96 0 7.92 0 12 0 C12 0.99 12 1.98 12 3 C6.72 3 1.44 3 -4 3 C-2.68 2.67 -1.36 2.34 0 2 C0 1.34 0 0.68 0 0 Z " fill="#B20000" transform="translate(1310,1163)"/>
<path d="M0 0 C0.89267578 0.00322266 1.78535156 0.00644531 2.70507812 0.00976562 C4.09823242 0.02233398 4.09823242 0.02233398 5.51953125 0.03515625 C6.45990234 0.03966797 7.40027344 0.04417969 8.36914062 0.04882812 C10.69016837 0.06060999 13.01106769 0.07706067 15.33203125 0.09765625 C15.33203125 0.42765625 15.33203125 0.75765625 15.33203125 1.09765625 C11.37203125 1.09765625 7.41203125 1.09765625 3.33203125 1.09765625 C3.33203125 1.75765625 3.33203125 2.41765625 3.33203125 3.09765625 C2.07390625 3.13890625 0.81578125 3.18015625 -0.48046875 3.22265625 C-1.18816406 3.24585937 -1.89585938 3.2690625 -2.625 3.29296875 C-4.66796875 3.09765625 -4.66796875 3.09765625 -7.66796875 1.09765625 C-4.78531726 0.13677242 -2.99134604 -0.01905316 0 0 Z " fill="#B40000" transform="translate(1544.66796875,2141.90234375)"/>
<path d="M0 0 C1.32 0 2.64 0 4 0 C4 0.99 4 1.98 4 3 C3.01 3 2.02 3 1 3 C1 3.99 1 4.98 1 6 C-0.32 6 -1.64 6 -3 6 C-3 6.99 -3 7.98 -3 9 C-4.32 9 -5.64 9 -7 9 C-7 8.01 -7 7.02 -7 6 C-6.01 6 -5.02 6 -4 6 C-4 5.01 -4 4.02 -4 3 C-2.68 3 -1.36 3 0 3 C0 2.01 0 1.02 0 0 Z " fill="#900000" transform="translate(1700,2053)"/>
<path d="M0 0 C1.32 0 2.64 0 4 0 C4 4.62 4 9.24 4 14 C3.67 14 3.34 14 3 14 C3 12.02 3 10.04 3 8 C2.01 8 1.02 8 0 8 C0 5.36 0 2.72 0 0 Z " fill="#4C0000" transform="translate(1564,1893)"/>
<path d="M0 0 C1.32 0 2.64 0 4 0 C4 0.66 4 1.32 4 2 C6.97851562 1.90234375 6.97851562 1.90234375 9.95703125 1.8046875 C12 2 12 2 15 4 C14.01 4 13.02 4 12 4 C12 4.66 12 5.32 12 6 C10.35 6 8.7 6 7 6 C7 5.01 7 4.02 7 3 C4.69 3 2.38 3 0 3 C0 2.01 0 1.02 0 0 Z " fill="#8F0000" transform="translate(1298,1032)"/>
<path d="M0 0 C1.32 0 2.64 0 4 0 C4 5.94 4 11.88 4 18 C3.67 18 3.34 18 3 18 C2.67 14.04 2.34 10.08 2 6 C1.34 6 0.68 6 0 6 C0 4.02 0 2.04 0 0 Z " fill="#317391" transform="translate(2021,207)"/>
<path d="M0 0 C1.65 0 3.3 0 5 0 C5 0.66 5 1.32 5 2 C1.0186217 3.3271261 -2.85045227 3.06915913 -7 3 C-7 3.99 -7 4.98 -7 6 C-9.64 6 -12.28 6 -15 6 C-13.68 5.67 -12.36 5.34 -11 5 C-11 4.01 -11 3.02 -11 2 C-7.37 2 -3.74 2 0 2 C0 1.34 0 0.68 0 0 Z " fill="#79A4B7" transform="translate(875,175)"/>
<path d="M0 0 C0.33 0 0.66 0 1 0 C1 1.98 1 3.96 1 6 C-0.32 6 -1.64 6 -3 6 C-3 6.99 -3 7.98 -3 9 C-4.32 9 -5.64 9 -7 9 C-7.33 9.99 -7.66 10.98 -8 12 C-8 10.02 -8 8.04 -8 6 C-6.68 6 -5.36 6 -4 6 C-4 5.01 -4 4.02 -4 3 C-2.68 3 -1.36 3 0 3 C0 2.01 0 1.02 0 0 Z " fill="#890000" transform="translate(1716,2038)"/>
<path d="M0 0 C1.32 0 2.64 0 4 0 C4 6.93 4 13.86 4 21 C2.68 21 1.36 21 0 21 C0 20.01 0 19.02 0 18 C0.99 18 1.98 18 3 18 C3 12.72 3 7.44 3 2 C2.01 2 1.02 2 0 2 C0 1.34 0 0.68 0 0 Z " fill="#580000" transform="translate(1752,1967)"/>
<path d="M0 0 C1.32 0 2.64 0 4 0 C4 2.97 4 5.94 4 9 C5.32 9 6.64 9 8 9 C8 10.98 8 12.96 8 15 C7.67 14.01 7.34 13.02 7 12 C5.68 12 4.36 12 3 12 C3 9.03 3 6.06 3 3 C2.01 3 1.02 3 0 3 C0 2.01 0 1.02 0 0 Z " fill="#550000" transform="translate(1564,835)"/>
<path d="M0 0 C1.65 0 3.3 0 5 0 C5 0.99 5 1.98 5 3 C3.68 3 2.36 3 1 3 C1 3.99 1 4.98 1 6 C-0.32 6 -1.64 6 -3 6 C-3 6.99 -3 7.98 -3 9 C-4.32 8.67 -5.64 8.34 -7 8 C-6.01 8 -5.02 8 -4 8 C-4 6.35 -4 4.7 -4 3 C-2.68 3 -1.36 3 0 3 C0 2.01 0 1.02 0 0 Z " fill="#4A0000" transform="translate(1266,794)"/>
<path d="M0 0 C0.33 0 0.66 0 1 0 C1 5.94 1 11.88 1 18 C1.99 18 2.98 18 4 18 C4 19.65 4 21.3 4 23 C3.01 23 2.02 23 1 23 C0.03911617 20.11734851 -0.11670941 18.32337729 -0.09765625 15.33203125 C-0.09443359 14.43935547 -0.09121094 13.54667969 -0.08789062 12.62695312 C-0.07951172 11.69818359 -0.07113281 10.76941406 -0.0625 9.8125 C-0.05798828 8.87212891 -0.05347656 7.93175781 -0.04882812 6.96289062 C-0.03704626 4.64186288 -0.02059558 2.32096356 0 0 Z " fill="#7D0000" transform="translate(1227,934)"/>
<path d="M0 0 C0 0.99 0 1.98 0 3 C-4.09003859 4.14982602 -8.03177051 4.11094256 -12.25 4.0625 C-12.99507812 4.05798828 -13.74015625 4.05347656 -14.5078125 4.04882812 C-16.3385764 4.03709246 -18.16929873 4.0191585 -20 4 C-20 3.67 -20 3.34 -20 3 C-18.75283203 2.92652344 -18.75283203 2.92652344 -17.48046875 2.8515625 C-16.39378906 2.77679687 -15.30710937 2.70203125 -14.1875 2.625 C-13.10855469 2.55539062 -12.02960938 2.48578125 -10.91796875 2.4140625 C-6.65844462 1.80963203 -4.52344052 -0.2445103 0 0 Z " fill="#CE0000" transform="translate(1451,1043)"/>
<path d="M0 0 C3.63 0 7.26 0 11 0 C11.33 0.99 11.66 1.98 12 3 C8.04 3 4.08 3 0 3 C0 2.01 0 1.02 0 0 Z " fill="#C50000" transform="translate(1435,764)"/>
<path d="M0 0 C1.32 0.33 2.64 0.66 4 1 C3.113125 1.721875 2.22625 2.44375 1.3125 3.1875 C-1.63741207 5.63992096 -4.32793794 8.24934788 -7 11 C-7 9.35 -7 7.7 -7 6 C-6.01 6 -5.02 6 -4 6 C-4 4.68 -4 3.36 -4 2 C-2.68 2 -1.36 2 0 2 C0 1.34 0 0.68 0 0 Z " fill="#256B8A" transform="translate(852,187)"/>
<path d="M0 0 C1.65 0 3.3 0 5 0 C5 0.66 5 1.32 5 2 C7.31 2 9.62 2 12 2 C12.33 3.98 12.66 5.96 13 8 C12.67 7.34 12.34 6.68 12 6 C10.68 6 9.36 6 8 6 C8 5.34 8 4.68 8 4 C7.4225 3.896875 6.845 3.79375 6.25 3.6875 C3.67950842 2.90207202 2.06342716 1.69495803 0 0 Z " fill="#5289A2" transform="translate(2001,184)"/>
<path d="M0 0 C8.57142857 -0.14285714 8.57142857 -0.14285714 12 1 C12 1.66 12 2.32 12 3 C8.04 3 4.08 3 0 3 C0 2.01 0 1.02 0 0 Z " fill="#A30000" transform="translate(1634,1955)"/>
<path d="M0 0 C8.57142857 -0.14285714 8.57142857 -0.14285714 12 1 C12 1.66 12 2.32 12 3 C14.64 3 17.28 3 20 3 C20 3.33 20 3.66 20 4 C15.71 4 11.42 4 7 4 C7 3.01 7 2.02 7 1 C4.69 1 2.38 1 0 1 C0 0.67 0 0.34 0 0 Z " fill="#B0C9D4" transform="translate(868,2294)"/>
<path d="M0 0 C1.32 0 2.64 0 4 0 C4 0.99 4 1.98 4 3 C1.36 3 -1.28 3 -4 3 C-4 3.66 -4 4.32 -4 5 C-6.31 5.33 -8.62 5.66 -11 6 C-10.01 5.67 -9.02 5.34 -8 5 C-7.67 4.01 -7.34 3.02 -7 2 C-4.69 2 -2.38 2 0 2 C0 1.34 0 0.68 0 0 Z " fill="#6B0000" transform="translate(1587,2131)"/>
<path d="M0 0 C1.32 0 2.64 0 4 0 C4 0.66 4 1.32 4 2 C7.96 2 11.92 2 16 2 C16 2.99 16 3.98 16 5 C14.68 5 13.36 5 12 5 C12 4.34 12 3.68 12 3 C8.37 3 4.74 3 1 3 C0.67 2.01 0.34 1.02 0 0 Z " fill="#8F0000" transform="translate(1403,2131)"/>
<path d="M0 0 C1.32 0 2.64 0 4 0 C4 0.99 4 1.98 4 3 C5.32 3 6.64 3 8 3 C8 3.99 8 4.98 8 6 C9.32 6 10.64 6 12 6 C12 6.66 12 7.32 12 8 C12.99 8.33 13.98 8.66 15 9 C13.68 9 12.36 9 11 9 C11 8.34 11 7.68 11 7 C8.36 6.67 5.72 6.34 3 6 C3 4.35 3 2.7 3 1 C2.01 0.67 1.02 0.34 0 0 Z " fill="#4A0000" transform="translate(1263,1014)"/>
<path d="M0 0 C1.32 0 2.64 0 4 0 C4 2.97 4 5.94 4 9 C4.99 9 5.98 9 7 9 C7 9.99 7 10.98 7 12 C5.68 12 4.36 12 3 12 C3 9.03 3 6.06 3 3 C2.01 3 1.02 3 0 3 C0 2.01 0 1.02 0 0 Z " fill="#8D0000" transform="translate(1259,2018)"/>
<path d="M0 0 C0.33 0 0.66 0 1 0 C1 1.98 1 3.96 1 6 C1.99 6 2.98 6 4 6 C4 7.98 4 9.96 4 12 C2.68 12 1.36 12 0 12 C0 8.04 0 4.08 0 0 Z " fill="#400000" transform="translate(1239,1949)"/>
<path d="M0 0 C1.65 0 3.3 0 5 0 C5 0.99 5 1.98 5 3 C3.68 3 2.36 3 1 3 C1 3.99 1 4.98 1 6 C-0.32 6 -1.64 6 -3 6 C-3 4.68 -3 3.36 -3 2 C-2.01 2 -1.02 2 0 2 C0 1.34 0 0.68 0 0 Z " fill="#5E0000" transform="translate(1262,1172)"/>
<path d="M0 0 C2.97 0 5.94 0 9 0 C9 0.99 9 1.98 9 3 C5.04 3 1.08 3 -3 3 C-2.01 2.67 -1.02 2.34 0 2 C0 1.34 0 0.68 0 0 Z " fill="#5C0000" transform="translate(1481,1038)"/>
<path d="M0 0 C1.32 0 2.64 0 4 0 C4 2.97 4 5.94 4 9 C4.99 9 5.98 9 7 9 C7 9.99 7 10.98 7 12 C5.68 12 4.36 12 3 12 C3 9.03 3 6.06 3 3 C2.01 3 1.02 3 0 3 C0 2.01 0 1.02 0 0 Z " fill="#940000" transform="translate(1236,975)"/>
<path d="M0 0 C1.32 0 2.64 0 4 0 C4 3.96 4 7.92 4 12 C3.67 12 3.34 12 3 12 C3 10.02 3 8.04 3 6 C2.01 6 1.02 6 0 6 C0 4.02 0 2.04 0 0 Z " fill="#AC0000" transform="translate(1232,963)"/>
<path d="M0 0 C0.99 0 1.98 0 3 0 C3.33 2.97 3.66 5.94 4 9 C3.67 8.01 3.34 7.02 3 6 C2.34 6 1.68 6 1 6 C1 7.98 1 9.96 1 12 C0.67 12 0.34 12 0 12 C0 8.04 0 4.08 0 0 Z " fill="#2B0000" transform="translate(1223,871)"/>
<path d="M0 0 C1.32 0 2.64 0 4 0 C4 3.96 4 7.92 4 12 C3.67 12 3.34 12 3 12 C3 10.02 3 8.04 3 6 C2.01 6 1.02 6 0 6 C0 4.02 0 2.04 0 0 Z " fill="#3E0000" transform="translate(1572,856)"/>
<path d="M0 0 C1.32 0 2.64 0 4 0 C4 1.98 4 3.96 4 6 C3.01 6 2.02 6 1 6 C1 7.98 1 9.96 1 12 C0.67 12 0.34 12 0 12 C0 8.04 0 4.08 0 0 Z " fill="#4B0000" transform="translate(1231,841)"/>
<path d="M0 0 C1.32 0 2.64 0 4 0 C4 0.99 4 1.98 4 3 C3.01 3 2.02 3 1 3 C1 5.97 1 8.94 1 12 C-0.32 12 -1.64 12 -3 12 C-3 11.01 -3 10.02 -3 9 C-2.01 9 -1.02 9 0 9 C0 6.03 0 3.06 0 0 Z " fill="#770000" transform="translate(1239,826)"/>
<path d="M0 0 C0.33 0.66 0.66 1.32 1 2 C4.96 2 8.92 2 13 2 C13 3.32 13 4.64 13 6 C11.35 6 9.7 6 8 6 C8 5.01 8 4.02 8 3 C5.36 3 2.72 3 0 3 C0 2.01 0 1.02 0 0 Z " fill="#450000" transform="translate(1481,770)"/>
<path d="M0 0 C2.97 0 5.94 0 9 0 C9 0.99 9 1.98 9 3 C5.04 3 1.08 3 -3 3 C-2.01 2.67 -1.02 2.34 0 2 C0 1.34 0 0.68 0 0 Z " fill="#900000" transform="translate(1352,764)"/>
<path d="M0 0 C1.32 0 2.64 0 4 0 C4 0.66 4 1.32 4 2 C5.2375 1.95875 6.475 1.9175 7.75 1.875 C11.01637962 1.86341709 13.2146947 2.1431298 16 4 C14.35 4.33 12.7 4.66 11 5 C11 4.34 11 3.68 11 3 C7.37 3 3.74 3 0 3 C0 2.01 0 1.02 0 0 Z " fill="#2B0000" transform="translate(1517,1166)"/>
<path d="M0 0 C1.32 0 2.64 0 4 0 C4 0.66 4 1.32 4 2 C1.24921116 2.91692961 -0.35948913 3.10886083 -3.1875 3.0625 C-5.0746875 3.0315625 -5.0746875 3.0315625 -7 3 C-7 3.66 -7 4.32 -7 5 C-8.32 5 -9.64 5 -11 5 C-11 4.01 -11 3.02 -11 2 C-7.37 2 -3.74 2 0 2 C0 1.34 0 0.68 0 0 Z " fill="#800000" transform="translate(1571,2137)"/>
<path d="M0 0 C2.64 0 5.28 0 8 0 C8 0.99 8 1.98 8 3 C4.04 3 0.08 3 -4 3 C-2.68 2.67 -1.36 2.34 0 2 C0 1.34 0 0.68 0 0 Z " fill="#4A0000" transform="translate(1427,1047)"/>
<path d="M0 0 C2.64 0 5.28 0 8 0 C8 0.66 8 1.32 8 2 C9.32 2.33 10.64 2.66 12 3 C8.04 3 4.08 3 0 3 C0 2.01 0 1.02 0 0 Z " fill="#360000" transform="translate(1364,1047)"/>
<path d="M0 0 C1.32 0 2.64 0 4 0 C4 0.99 4 1.98 4 3 C2.68 3 1.36 3 0 3 C0 3.66 0 4.32 0 5 C-2.31 5.33 -4.62 5.66 -7 6 C-6.01 5.67 -5.02 5.34 -4 5 C-3.67 4.01 -3.34 3.02 -3 2 C-2.01 2 -1.02 2 0 2 C0 1.34 0 0.68 0 0 Z " fill="#890000" transform="translate(1630,2107)"/>
<path d="M0 0 C1.8871875 0.0309375 1.8871875 0.0309375 3.8125 0.0625 C4.1425 1.0525 4.4725 2.0425 4.8125 3.0625 C-3.75892857 3.34821429 -3.75892857 3.34821429 -7.1875 1.0625 C-4.43671116 0.14557039 -2.82801087 -0.04636083 0 0 Z " fill="#A60000" transform="translate(1489.1875,1162.9375)"/>
<path d="M0 0 C0.33 0 0.66 0 1 0 C1 2.97 1 5.94 1 9 C-0.32 9 -1.64 9 -3 9 C-3 7.02 -3 5.04 -3 3 C-2.01 3 -1.02 3 0 3 C0 2.01 0 1.02 0 0 Z " fill="#500000" transform="translate(1567,972)"/>
<path d="M0 0 C0.33 0 0.66 0 1 0 C1 3.63 1 7.26 1 11 C-0.32 11 -1.64 11 -3 11 C-3 9.35 -3 7.7 -3 6 C-2.01 6 -1.02 6 0 6 C0 4.02 0 2.04 0 0 Z " fill="#450000" transform="translate(1575,946)"/>
<path d="M0 0 C0.66 0 1.32 0 2 0 C3.04976964 3.14930893 3.10131595 5.38814456 3.0625 8.6875 C3.05347656 9.68136719 3.04445313 10.67523437 3.03515625 11.69921875 C3.02355469 12.45847656 3.01195312 13.21773437 3 14 C2.67 14 2.34 14 2 14 C2 11.36 2 8.72 2 6 C1.01 6 0.02 6 -1 6 C-0.67 4.02 -0.34 2.04 0 0 Z " fill="#C30000" transform="translate(1229,946)"/>
<path d="M0 0 C1.32 0 2.64 0 4 0 C4 1.98 4 3.96 4 6 C3.67 5.34 3.34 4.68 3 4 C2.34 4 1.68 4 1 4 C1 6.64 1 9.28 1 12 C0.67 12 0.34 12 0 12 C0 8.04 0 4.08 0 0 Z " fill="#3B0000" transform="translate(1227,853)"/>
<path d="M0 0 C2.97 0 5.94 0 9 0 C9 0.99 9 1.98 9 3 C6.36 3 3.72 3 1 3 C0.67 2.01 0.34 1.02 0 0 Z " fill="#600000" transform="translate(1446,764)"/>
<path d="M0 0 C3.96 1.32 7.92 2.64 12 4 C12 4.33 12 4.66 12 5 C9.36 5 6.72 5 4 5 C4 4.34 4 3.68 4 3 C2.68 3 1.36 3 0 3 C0 2.01 0 1.02 0 0 Z " fill="#276D8C" transform="translate(852,2283)"/>
<path d="M0 0 C0.33 0 0.66 0 1 0 C1 2.64 1 5.28 1 8 C1.99 8 2.98 8 4 8 C4.33 9.98 4.66 11.96 5 14 C2.5 13.1875 2.5 13.1875 0 11 C-0.46346554 7.30318076 -0.28328381 3.70787035 0 0 Z " fill="#1F6787" transform="translate(841,2262)"/>
<path d="M0 0 C1.32 0 2.64 0 4 0 C4 1.98 4 3.96 4 6 C2.68 6 1.36 6 0 6 C0 4.02 0 2.04 0 0 Z " fill="#A3C0CD" transform="translate(2021,2265)"/>
<path d="M0 0 C1.32 0 2.64 0 4 0 C4 1.98 4 3.96 4 6 C2.68 6 1.36 6 0 6 C0 4.02 0 2.04 0 0 Z " fill="#46819C" transform="translate(2021,2259)"/>
<path d="M0 0 C8.57142857 -0.14285714 8.57142857 -0.14285714 12 1 C12 1.66 12 2.32 12 3 C9.36 3 6.72 3 4 3 C4 2.34 4 1.68 4 1 C2.68 0.67 1.36 0.34 0 0 Z " fill="#AA0000" transform="translate(1423,2136)"/>
<path d="M0 0 C1.32 0 2.64 0 4 0 C4 0.99 4 1.98 4 3 C3.01 3 2.02 3 1 3 C1 3.99 1 4.98 1 6 C-0.32 6 -1.64 6 -3 6 C-3 5.01 -3 4.02 -3 3 C-2.01 3 -1.02 3 0 3 C0 2.01 0 1.02 0 0 Z " fill="#6A0000" transform="translate(1653,2092)"/>
<path d="M0 0 C1.32 0 2.64 0 4 0 C4 0.66 4 1.32 4 2 C3.01 2 2.02 2 1 2 C1 4.31 1 6.62 1 9 C-0.32 9 -1.64 9 -3 9 C-3 8.01 -3 7.02 -3 6 C-2.01 6 -1.02 6 0 6 C0 4.02 0 2.04 0 0 Z " fill="#940000" transform="translate(1739,2006)"/>
<path d="M0 0 C1.32 0 2.64 0 4 0 C4 1.98 4 3.96 4 6 C2.68 6 1.36 6 0 6 C0 4.02 0 2.04 0 0 Z " fill="#870000" transform="translate(1255,2009)"/>
<path d="M0 0 C1.32 0 2.64 0 4 0 C4 1.98 4 3.96 4 6 C2.68 6 1.36 6 0 6 C0 4.02 0 2.04 0 0 Z " fill="#6D0000" transform="translate(1251,2000)"/>
<path d="M0 0 C1.32 0 2.64 0 4 0 C4 1.98 4 3.96 4 6 C2.68 6 1.36 6 0 6 C0 4.02 0 2.04 0 0 Z " fill="#7E0000" transform="translate(1247,1988)"/>
<path d="M0 0 C1.32 0 2.64 0 4 0 C4 1.98 4 3.96 4 6 C2.68 6 1.36 6 0 6 C0 4.02 0 2.04 0 0 Z " fill="#440000" transform="translate(1243,1976)"/>
<path d="M0 0 C2.64 0 5.28 0 8 0 C8 0.99 8 1.98 8 3 C5.36 3 2.72 3 0 3 C0 2.01 0 1.02 0 0 Z " fill="#460000" transform="translate(1611,1949)"/>
<path d="M0 0 C1.32 0 2.64 0 4 0 C4 1.98 4 3.96 4 6 C2.68 6 1.36 6 0 6 C0 4.02 0 2.04 0 0 Z " fill="#9D0000" transform="translate(1560,1193)"/>
<path d="M0 0 C2.64 0 5.28 0 8 0 C8 0.99 8 1.98 8 3 C5.36 3 2.72 3 0 3 C0 2.01 0 1.02 0 0 Z " fill="#980000" transform="translate(1509,1166)"/>
<path d="M0 0 C2.64 0 5.28 0 8 0 C8 0.99 8 1.98 8 3 C5.36 3 2.72 3 0 3 C0 2.01 0 1.02 0 0 Z " fill="#9F0000" transform="translate(1286,1166)"/>
<path d="M0 0 C2.64 0 5.28 0 8 0 C8 0.99 8 1.98 8 3 C5.36 3 2.72 3 0 3 C0 2.01 0 1.02 0 0 Z " fill="#4B0000" transform="translate(1470,1041)"/>
<path d="M0 0 C0.33 0 0.66 0 1 0 C0.67 2.97 0.34 5.94 0 9 C-0.99 9 -1.98 9 -3 9 C-3 7.02 -3 5.04 -3 3 C-2.01 3 -1.02 3 0 3 C0 2.01 0 1.02 0 0 Z " fill="#730000" transform="translate(1571,960)"/>
<path d="M0 0 C2.64 0 5.28 0 8 0 C8 0.99 8 1.98 8 3 C5.36 3 2.72 3 0 3 C0 2.01 0 1.02 0 0 Z " fill="#A20000" transform="translate(1310,773)"/>
<path d="M0 0 C2.64 0 5.28 0 8 0 C8 0.99 8 1.98 8 3 C5.36 3 2.72 3 0 3 C0 2.01 0 1.02 0 0 Z " fill="#CD0000" transform="translate(1337,767)"/>
<path d="M0 0 C1.32 0 2.64 0 4 0 C3.125 3.875 3.125 3.875 2 5 C1.63239269 7.32817964 1.29758419 9.6618385 1 12 C0.67 12 0.34 12 0 12 C0 8.04 0 4.08 0 0 Z " fill="#226989" transform="translate(841,198)"/>
<path d="M0 0 C1.32 0 2.64 0 4 0 C4 0.99 4 1.98 4 3 C-0.95 3 -5.9 3 -11 3 C-11 2.67 -11 2.34 -11 2 C-7.37 2 -3.74 2 0 2 C0 1.34 0 0.68 0 0 Z " fill="#B5CDD7" transform="translate(1982,2295)"/>
<path d="M0 0 C0.99 0 1.98 0 3 0 C3.33 0.66 3.66 1.32 4 2 C4.99 2.33 5.98 2.66 7 3 C7.33 3.99 7.66 4.98 8 6 C6.35 6 4.7 6 3 6 C3 5.01 3 4.02 3 3 C2.01 3 1.02 3 0 3 C0 2.01 0 1.02 0 0 Z " fill="#530000" transform="translate(1345,2107)"/>
<path d="M0 0 C0.33 0 0.66 0 1 0 C1 1.98 1 3.96 1 6 C1.99 6 2.98 6 4 6 C4 7.32 4 8.64 4 10 C2.68 10 1.36 10 0 10 C0 6.7 0 3.4 0 0 Z " fill="#E40000" transform="translate(1251,1990)"/>
<path d="M0 0 C1.258125 -0.020625 2.51625 -0.04125 3.8125 -0.0625 C4.52019531 -0.07410156 5.22789063 -0.08570313 5.95703125 -0.09765625 C8 0 8 0 11 1 C11 1.66 11 2.32 11 3 C8.69 3 6.38 3 4 3 C4 2.34 4 1.68 4 1 C2.68 0.67 1.36 0.34 0 0 Z " fill="#770000" transform="translate(1642,1955)"/>
<path d="M0 0 C2.31 0 4.62 0 7 0 C7.33 0.99 7.66 1.98 8 3 C5.36 3 2.72 3 0 3 C0 2.01 0 1.02 0 0 Z " fill="#770000" transform="translate(1345,1044)"/>
<path d="M0 0 C0.33 0 0.66 0 1 0 C1 3.3 1 6.6 1 10 C0.01 10 -0.98 10 -2 10 C-1.85950482 8.52031676 -1.71245174 7.04125484 -1.5625 5.5625 C-1.48128906 4.73878906 -1.40007812 3.91507813 -1.31640625 3.06640625 C-1 1 -1 1 0 0 Z " fill="#9F0000" transform="translate(1226,918)"/>
<path d="M0 0 C2.31 0 4.62 0 7 0 C7 0.99 7 1.98 7 3 C4.69 3 2.38 3 0 3 C0 2.01 0 1.02 0 0 Z " fill="#420000" transform="translate(1455,1044)"/>
<path d="M0 0 C0.33 0 0.66 0 1 0 C1 2.97 1 5.94 1 9 C1.99 9 2.98 9 4 9 C4 9.99 4 10.98 4 12 C2.68 12 1.36 12 0 12 C0 8.04 0 4.08 0 0 Z " fill="#4D0000" transform="translate(1231,960)"/>
<path d="M0 0 C1.32 0 2.64 0 4 0 C4 0.99 4 1.98 4 3 C3.01 3 2.02 3 1 3 C1 5.97 1 8.94 1 12 C0.67 12 0.34 12 0 12 C0 8.04 0 4.08 0 0 Z " fill="#CA0000" transform="translate(1567,960)"/>
<path d="M0 0 C1.32 0 2.64 0 4 0 C4 1.98 4 3.96 4 6 C3.01 6 2.02 6 1 6 C0.67 4.02 0.34 2.04 0 0 Z " fill="#1C0000" transform="translate(1576,934)"/>
<path d="M0 0 C0.33 0 0.66 0 1 0 C1.23509196 4.81938524 0.45184478 8.46298506 -1 13 C-1.33 13 -1.66 13 -2 13 C-2.05447047 11.58376784 -2.09300508 10.16691809 -2.125 8.75 C-2.14820313 7.96109375 -2.17140625 7.1721875 -2.1953125 6.359375 C-1.9828378 3.79268059 -1.28654105 2.2083933 0 0 Z " fill="#B50000" transform="translate(1226,912)"/>
<path d="M0 0 C0.33 0 0.66 0 1 0 C1 3.96 1 7.92 1 12 C-0.32 12 -1.64 12 -3 12 C-3 11.01 -3 10.02 -3 9 C-2.01 9 -1.02 9 0 9 C0 6.03 0 3.06 0 0 Z " fill="#AA0000" transform="translate(1235,838)"/>
<path d="M0 0 C2.31 0 4.62 0 7 0 C7 0.99 7 1.98 7 3 C4.69 3 2.38 3 0 3 C0 2.01 0 1.02 0 0 Z " fill="#B20000" transform="translate(1474,770)"/>
<path d="M0 0 C1.32 0 2.64 0 4 0 C4 0.99 4 1.98 4 3 C0.04 3 -3.92 3 -8 3 C-8 2.67 -8 2.34 -8 2 C-5.36 2 -2.72 2 0 2 C0 1.34 0 0.68 0 0 Z " fill="#B0CAD5" transform="translate(1994,2292)"/>
<path d="M0 0 C2.31 0.33 4.62 0.66 7 1 C7 1.66 7 2.32 7 3 C8.32 3.33 9.64 3.66 11 4 C8.36 4 5.72 4 3 4 C3 3.01 3 2.02 3 1 C2.01 0.67 1.02 0.34 0 0 Z " fill="#670000" transform="translate(1365,2118)"/>
<path d="M0 0 C0.99 0 1.98 0 3 0 C3 4.62 3 9.24 3 14 C2.67 14 2.34 14 2 14 C2 10.37 2 6.74 2 3 C1.34 3 0.68 3 0 3 C0 2.01 0 1.02 0 0 Z " fill="#150000" transform="translate(1240,1961)"/>
<path d="M0 0 C0.66 0 1.32 0 2 0 C2.33 2.97 2.66 5.94 3 9 C0 6 0 6 -0.1875 2.8125 C-0.125625 1.884375 -0.06375 0.95625 0 0 Z " fill="#650000" transform="translate(1224,877)"/>
<path d="M0 0 C0.66 0 1.32 0 2 0 C3.35439668 2.70879335 3.06501451 5.00933268 3 8 C2.34 8 1.68 8 1 8 C-0.35439668 5.29120665 -0.06501451 2.99066732 0 0 Z " fill="#8E0000" transform="translate(1228,857)"/>
<path d="M0 0 C0.99 0 1.98 0 3 0 C3 0.66 3 1.32 3 2 C5.64 2 8.28 2 11 2 C11 2.33 11 2.66 11 3 C7.04 3 3.08 3 -1 3 C-0.67 2.01 -0.34 1.02 0 0 Z " fill="#450000" transform="translate(1412,2134)"/>
<path d="M0 0 C2.31 0 4.62 0 7 0 C7.33 0.99 7.66 1.98 8 3 C5.36 3 2.72 3 0 3 C0 2.01 0 1.02 0 0 Z " fill="#DA0000" transform="translate(1478,1163)"/>
<path d="M0 0 C0 0.99 0 1.98 0 3 C-2.31 3 -4.62 3 -7 3 C-7 2.34 -7 1.68 -7 1 C-4 0 -4 0 0 0 Z " fill="#220000" transform="translate(1462,2143)"/>
<path d="M0 0 C1.65 0 3.3 0 5 0 C5 0.99 5 1.98 5 3 C2.36 3 -0.28 3 -3 3 C-2.01 2.67 -1.02 2.34 0 2 C0 1.34 0 0.68 0 0 Z " fill="#600000" transform="translate(1610,2119)"/>
<path d="M0 0 C0.99 0 1.98 0 3 0 C3 1.98 3 3.96 3 6 C2.01 6 1.02 6 0 6 C0 4.02 0 2.04 0 0 Z " fill="#D70000" transform="translate(1752,1973)"/>
<path d="M0 0 C0.33 0.66 0.66 1.32 1 2 C1.99 2 2.98 2 4 2 C4 3.32 4 4.64 4 6 C2.68 6 1.36 6 0 6 C0 4.02 0 2.04 0 0 Z " fill="#960000" transform="translate(1243,1970)"/>
<path d="M0 0 C1.32 0 2.64 0 4 0 C4 1.65 4 3.3 4 5 C3.01 5 2.02 5 1 5 C0.67 3.35 0.34 1.7 0 0 Z " fill="#D30000" transform="translate(1243,1967)"/>
<path d="M0 0 C2.64 0 5.28 0 8 0 C8 0.99 8 1.98 8 3 C6.35 3 4.7 3 3 3 C3 2.34 3 1.68 3 1 C2.01 0.67 1.02 0.34 0 0 Z " fill="#7F0000" transform="translate(1619,1952)"/>
<path d="M0 0 C0.99 0 1.98 0 3 0 C3 1.98 3 3.96 3 6 C2.01 6 1.02 6 0 6 C0 4.02 0 2.04 0 0 Z " fill="#840000" transform="translate(1240,1949)"/>
<path d="M0 0 C0.66 0 1.32 0 2 0 C2 1.98 2 3.96 2 6 C1.34 6 0.68 6 0 6 C-0.33 6.99 -0.66 7.98 -1 9 C-0.67 6.03 -0.34 3.06 0 0 Z " fill="#DE0000" transform="translate(1241,1928)"/>
<path d="M0 0 C0.99 0 1.98 0 3 0 C3 1.98 3 3.96 3 6 C2.01 6 1.02 6 0 6 C0 4.02 0 2.04 0 0 Z " fill="#B90000" transform="translate(1564,1901)"/>
<path d="M0 0 C1.65 0 3.3 0 5 0 C5 0.99 5 1.98 5 3 C2.36 3 -0.28 3 -3 3 C-2.01 2.67 -1.02 2.34 0 2 C0 1.34 0 0.68 0 0 Z " fill="#3B0000" transform="translate(1270,1169)"/>
<path d="M0 0 C1.65 0 3.3 0 5 0 C5 0.99 5 1.98 5 3 C2.36 3 -0.28 3 -3 3 C-2.01 2.67 -1.02 2.34 0 2 C0 1.34 0 0.68 0 0 Z " fill="#670000" transform="translate(1493,1035)"/>
<path d="M0 0 C0.99 0 1.98 0 3 0 C3 1.98 3 3.96 3 6 C2.01 6 1.02 6 0 6 C0 4.02 0 2.04 0 0 Z " fill="#440000" transform="translate(1224,934)"/>
<path d="M0 0 C0.99 0 1.98 0 3 0 C3 1.98 3 3.96 3 6 C2.01 6 1.02 6 0 6 C0 4.02 0 2.04 0 0 Z " fill="#750000" transform="translate(1224,928)"/>
<path d="M0 0 C1.32 0 2.64 0 4 0 C4 1.98 4 3.96 4 6 C3.67 5.01 3.34 4.02 3 3 C2.34 3 1.68 3 1 3 C0.67 3.99 0.34 4.98 0 6 C0 4.02 0 2.04 0 0 Z " fill="#250000" transform="translate(1576,877)"/>
<path d="M0 0 C1.65 0 3.3 0 5 0 C5 0.99 5 1.98 5 3 C2.36 3 -0.28 3 -3 3 C-2.01 2.67 -1.02 2.34 0 2 C0 1.34 0 0.68 0 0 Z " fill="#880000" transform="translate(1321,770)"/>
<path d="M0 0 C0.99 0 1.98 0 3 0 C3 1.98 3 3.96 3 6 C2.01 6 1.02 6 0 6 C0 4.02 0 2.04 0 0 Z " fill="#5F92A9" transform="translate(837,204)"/>
<path d="M0 0 C1.32 0 2.64 0 4 0 C4 0.99 4 1.98 4 3 C3.01 3 2.02 3 1 3 C1 4.98 1 6.96 1 9 C0.67 9 0.34 9 0 9 C0 6.03 0 3.06 0 0 Z " fill="#C2D5DE" transform="translate(836,201)"/>
<path d="M0 0 C0.99 0 1.98 0 3 0 C3.33 0.66 3.66 1.32 4 2 C4.99 2.33 5.98 2.66 7 3 C7 4.98 7 6.96 7 9 C4.74754119 6.31158141 3.11786042 4.35358125 2 1 C1.34 0.67 0.68 0.34 0 0 Z " fill="#186284" transform="translate(2010,190)"/>
<path d="M0 0 C3.96 0 7.92 0 12 0 C12 0.33 12 0.66 12 1 C8.04 1.66 4.08 2.32 0 3 C0 2.01 0 1.02 0 0 Z " fill="#176183" transform="translate(868,178)"/>
<path d="M0 0 C0 0.99 0 1.98 0 3 C-2.64 2.67 -5.28 2.34 -8 2 C-4.91190305 0.23537317 -3.76687864 0 0 0 Z " fill="#4C0000" transform="translate(1388,2125)"/>
<path d="M0 0 C1.32 0 2.64 0 4 0 C4 0.99 4 1.98 4 3 C3.01 3 2.02 3 1 3 C1 4.65 1 6.3 1 8 C0.67 8 0.34 8 0 8 C0 5.36 0 2.72 0 0 Z " fill="#91B5C4" transform="translate(844,190)"/>
</svg>
